<?xml version="1.0" encoding="UTF-8"?>
<svg version="1.1" xmlns="http://www.w3.org/2000/svg" width="580" height="580">
<path d="M0 0 C191.4 0 382.8 0 580 0 C580 191.4 580 382.8 580 580 C388.6 580 197.2 580 0 580 C0 388.6 0 197.2 0 0 Z " fill="#FDFDFD" transform="translate(0,0)"/>
<path d="M0 0 C3.89599843 1.5924075 6.5734692 4.25072982 9.5078125 7.171875 C10.0333371 7.6907428 10.55886169 8.2096106 11.10031128 8.74420166 C12.21403855 9.84781294 13.3250737 10.95414673 14.43359375 12.06298828 C16.08828283 13.71337823 17.75817345 15.34714657 19.4296875 16.98046875 C33.89797528 31.29395136 45.16787624 46.53803829 45.3125 67.5625 C45.33888584 79.60421761 42.92308214 88.09772268 36 98 C49.61996468 88.73940918 57.48180661 79.53926183 61.39794922 63.35253906 C62.42184698 57.65093157 62.31486249 52.0237664 62.1875 46.25 C62.17396484 45.0640625 62.16042969 43.878125 62.14648438 42.65625 C62.11157409 39.77033307 62.06254539 36.88542736 62 34 C59.39402144 34.95362622 56.79026349 35.91267128 54.1875 36.875 C53.44951172 37.14441406 52.71152344 37.41382813 51.95117188 37.69140625 C51.23896484 37.95566406 50.52675781 38.21992188 49.79296875 38.4921875 C49.1383667 38.73308105 48.48376465 38.97397461 47.80932617 39.22216797 C45.72104063 40.05526168 45.72104063 40.05526168 43 42 C42.01 42 41.02 42 40 42 C40 40.68 40 39.36 40 38 C57.58769488 29.58964365 57.58769488 29.58964365 66 30 C67.89486624 44.97406491 69.15591148 60.89270286 63 75 C62.566875 76.09054688 62.566875 76.09054688 62.125 77.203125 C55.60865289 91.98126934 41.87331605 100.88050266 28 108 C41.82818833 108.69839335 53.18603293 108.17763797 64.375 98.9375 C73.38793106 90.07088275 77.01486923 79.94052306 80 68 C75.71 68 71.42 68 67 68 C67.33 66.68 67.66 65.36 68 64 C79.52164009 63.81548975 79.52164009 63.81548975 85 65 C83.39038818 76.79456935 79.12342277 89.12138466 71 98 C70.46632813 98.61230469 69.93265625 99.22460938 69.3828125 99.85546875 C65.17066425 104.40730638 60.54170938 107.27312713 55 110 C55.79921875 110.10957031 56.5984375 110.21914063 57.421875 110.33203125 C75.33175377 112.91761234 89.8739071 118.16803961 105 128 C104.44111378 131.41121171 103.55851713 132.73462328 100.7890625 134.76953125 C100.12672607 135.26251709 99.46438965 135.75550293 98.78198242 136.26342773 C98.07017822 136.77462158 97.35837402 137.28581543 96.625 137.8125 C95.89837158 138.34367432 95.17174316 138.87484863 94.4230957 139.42211914 C78.55709444 150.92738197 61.44876012 161.36250117 41 159 C28.10531526 156.18165527 18.08253684 150.59761455 9 141 C7.71484375 138.72265625 7.71484375 138.72265625 7 137 C14.4708605 126.47487594 23.75179767 118.42296195 36 114 C23.40663593 111.81848006 23.40663593 111.81848006 11 114 C7.73317887 114.22800687 4.46146743 114.18515978 1.1875 114.1875 C0.29740234 114.19974609 -0.59269531 114.21199219 -1.50976562 114.22460938 C-6.47399325 114.23564917 -10.30145014 113.75488007 -15 112 C-16.90487554 112.16143013 -18.8124481 112.33287988 -20.69921875 112.640625 C-23.45971738 113.07180645 -26.21686377 113.31955614 -29 113.5625 C-29.94875 113.64628906 -30.8975 113.73007812 -31.875 113.81640625 C-32.57625 113.87699219 -33.2775 113.93757813 -34 114 C-33.10539062 114.40089844 -32.21078125 114.80179687 -31.2890625 115.21484375 C-22.9871822 119.06694385 -16.43585181 123.35771521 -10 130 C-9.41992188 130.57105469 -8.83984375 131.14210938 -8.2421875 131.73046875 C-6.8125 133.25 -6.8125 133.25 -5 136 C-5.23345538 140.47942504 -6.92887686 142.43001269 -10.1875 145.375 C-22.13892538 155.66078132 -36.11979837 160.17983746 -51.78662109 159.23828125 C-66.80954076 157.62098921 -79.22941327 148.42534427 -91.0625 139.8125 C-91.8968457 139.20607666 -92.73119141 138.59965332 -93.59082031 137.97485352 C-94.7698291 137.09978149 -94.7698291 137.09978149 -95.97265625 136.20703125 C-96.67656494 135.6860083 -97.38047363 135.16498535 -98.10571289 134.62817383 C-100.08857533 132.92386792 -101.51354676 131.14289982 -103 129 C-87.70895886 117.33324627 -70.89774567 111.98648502 -52 110 C-53.11375 109.525625 -54.2275 109.05125 -55.375 108.5625 C-68.65191706 101.8769602 -76.40059119 89.71144512 -81 76 C-81.85661619 72.35161394 -82.51007689 68.71464086 -83 65 C-79.39006828 63.86519473 -76.0157673 63.89984233 -72.25 63.9375 C-70.49429688 63.95103516 -70.49429688 63.95103516 -68.703125 63.96484375 C-67.81109375 63.97644531 -66.9190625 63.98804688 -66 64 C-65.67 65.32 -65.34 66.64 -65 68 C-69.29 68 -73.58 68 -78 68 C-74.03111363 82.57696976 -69.0914494 95.3967185 -55.48046875 103.5 C-48.10692276 107.39128664 -41.33328002 108.13817366 -33.125 108.5625 C-31.949375 108.62727539 -31.949375 108.62727539 -30.75 108.69335938 C-28.83349351 108.79853351 -26.91676667 108.89967925 -25 109 C-25 108.34 -25 107.68 -25 107 C-25.70769531 106.9071875 -26.41539062 106.814375 -27.14453125 106.71875 C-39.07517657 103.71568743 -50.9312891 91.62218422 -57.53125 81.61328125 C-63.20365143 71.52063082 -64.17125482 61.48826696 -64.125 50.125 C-64.13080078 48.71154297 -64.13080078 48.71154297 -64.13671875 47.26953125 C-64.12864712 41.43373971 -63.74874065 35.78788404 -63 30 C-53.76275153 30.83974986 -46.17334361 33.69041883 -38 38 C-38 39.32 -38 40.64 -38 42 C-42.57844899 40.554174 -46.99907846 38.82089089 -51.4375 37 C-54.26176688 35.89784707 -57.11765081 34.93843927 -60 34 C-60.80985267 61.62388867 -60.80985267 61.62388867 -48.6328125 85.828125 C-44.16253348 90.47504119 -39.82385063 94.21468013 -34 97 C-34.39832031 96.39414063 -34.79664063 95.78828125 -35.20703125 95.1640625 C-42.75221175 83.23129528 -45.21023632 70.88726353 -42.60888672 56.89648438 C-36.85686682 33.24353366 -16.67031651 16.35185345 0 0 Z " fill="#232E3C" transform="translate(289,150)"/>
<path d="M0 0 C16.80904109 14.07689682 37.16789617 33.02651896 40.828125 55.859375 C41.92420796 69.51059005 39.31246258 81.29893282 30.609375 92.15625 C23.75567805 100.00805815 15.2734096 104.66621126 4.6953125 105.4140625 C-2.84805041 105.67964465 -10.15284602 105.4498113 -17 102 C-17.81726563 101.60941406 -18.63453125 101.21882813 -19.4765625 100.81640625 C-29.07635078 95.69748591 -35.61298739 87.31412316 -39 77 C-42.55351768 63.1727067 -40.08768758 49.24713654 -33.30859375 36.92578125 C-24.5288279 22.90381701 -11.69643929 11.54000543 0 0 Z " fill="#F8F9F9" transform="translate(290,155)"/>
<path d="M0 0 C11.52164009 -0.18451025 11.52164009 -0.18451025 17 1 C15.39038818 12.79456935 11.12342277 25.12138466 3 34 C2.46632813 34.61230469 1.93265625 35.22460938 1.3828125 35.85546875 C-2.82933575 40.40730638 -7.45829062 43.27312713 -13 46 C-12.20078125 46.10957031 -11.4015625 46.21914063 -10.578125 46.33203125 C7.33175377 48.91761234 21.8739071 54.16803961 37 64 C36.44111378 67.41121171 35.55851713 68.73462328 32.7890625 70.76953125 C32.12672607 71.26251709 31.46438965 71.75550293 30.78198242 72.26342773 C30.07017822 72.77462158 29.35837402 73.28581543 28.625 73.8125 C27.89837158 74.34367432 27.17174316 74.87484863 26.4230957 75.42211914 C10.55709444 86.92738197 -6.55123988 97.36250117 -27 95 C-39.89468474 92.18165527 -49.91746316 86.59761455 -59 77 C-60.28515625 74.72265625 -60.28515625 74.72265625 -61 73 C-53.43247159 62.33868792 -44.24978818 54.69575214 -32 50 C-35.3 49.67 -38.6 49.34 -42 49 C-42 48.67 -42 48.34 -42 48 C-37.05 47.67 -32.1 47.34 -27 47 C-30.63 46.67 -34.26 46.34 -38 46 C-38 45.67 -38 45.34 -38 45 C-36.99582031 44.98582031 -35.99164063 44.97164063 -34.95703125 44.95703125 C-21.85460311 44.58332049 -10.88985212 42.08441621 -1.21875 32.5703125 C6.20690094 23.96806194 9.30101556 14.79593776 12 4 C7.71 4 3.42 4 -1 4 C-0.67 2.68 -0.34 1.36 0 0 Z " fill="#232D3B" transform="translate(357,214)"/>
<path d="M0 0 C2 3 2 3 1.6875 5.625 C1 8 1 8 0 9 C-1.85772162 8.91015699 -3.71247985 8.75388139 -5.5625 8.5625 C-6.57441406 8.46066406 -7.58632813 8.35882813 -8.62890625 8.25390625 C-9.41136719 8.17011719 -10.19382812 8.08632813 -11 8 C-11.3445794 12.07419898 -11.3445794 12.07419898 -9 15.3125 C-6.78135942 19.01549798 -6.45556516 21.64452129 -7 26 C-9.19306678 32.69462491 -12.13888688 36.54343332 -18.4375 39.75 C-24.38078775 41.7769016 -30.77934175 41.74663049 -37 42 C-37.495 44.475 -37.495 44.475 -38 47 C-35.36925386 48.31537307 -32.92758164 48.18862904 -30.03198242 48.28979492 C-8.3645672 49.05680252 -8.3645672 49.05680252 -2.75 54.5625 C-0.3919031 59.19447606 -0.11156624 62.90188475 -1 68 C-4.01299257 74.2577538 -8.71015713 77.30382257 -15.11328125 79.5859375 C-19.96110936 81.15595876 -24.42899609 81.50175499 -29.5 81.4375 C-30.74728882 81.42722778 -30.74728882 81.42722778 -32.01977539 81.41674805 C-39.61089046 81.21755122 -44.86240732 79.83148608 -50.5625 74.6875 C-52.47296924 71.11575315 -52.64222426 68.99606207 -52 65 C-49.15431649 61.4225693 -45.99782522 59.17024798 -42 57 C-42.825 56.525625 -43.65 56.05125 -44.5 55.5625 C-47.15920857 52.83681122 -47.48193791 52.23774589 -47.75 48.625 C-47.61369716 45.67988497 -47.30932074 44.37593189 -45.421875 42.08203125 C-43.67655971 40.58858056 -41.92447738 39.25189217 -40 38 C-40.763125 37.484375 -41.52625 36.96875 -42.3125 36.4375 C-45.43148554 33.60865265 -47.12456044 31.08280222 -48 27 C-48.24893555 20.71686675 -47.31969603 15.77440088 -43 11 C-36.00187795 5.93856754 -29.39279063 5.47923521 -21 6 C-17.3125 7 -17.3125 7 -15 8 C-14.7525 7.236875 -14.505 6.47375 -14.25 5.6875 C-11.40897937 -0.42069435 -6.29769988 -1.24008762 0 0 Z " fill="#1B2535" transform="translate(491,349)"/>
<path d="M0 0 C5.84978292 3.62322195 9.63820308 9.12516232 12.2578125 15.3984375 C13.28715057 23.82788173 13.2025018 32.23516326 8.2578125 39.3984375 C4.30777849 44.27620347 -0.21761097 48.70130074 -6.68798828 49.69824219 C-8.84088829 49.83687782 -10.96009723 49.866225 -13.1171875 49.8359375 C-13.87233643 49.82763916 -14.62748535 49.81934082 -15.40551758 49.81079102 C-22.96528477 49.58076453 -27.67316638 47.77257825 -32.9921875 42.3359375 C-37.77847464 36.22884434 -40.55112176 28.36415101 -40.12109375 20.58203125 C-38.79004736 12.91136184 -34.5345683 6.48975634 -28.7421875 1.3984375 C-20.12008694 -4.48780423 -9.30612685 -4.21917648 0 0 Z " fill="#1E2736" transform="translate(412.7421875,357.6015625)"/>
<path d="M0 0 C3.89599843 1.5924075 6.5734692 4.25072982 9.5078125 7.171875 C10.0333371 7.6907428 10.55886169 8.2096106 11.10031128 8.74420166 C12.21403855 9.84781294 13.3250737 10.95414673 14.43359375 12.06298828 C16.08828283 13.71337823 17.75817345 15.34714657 19.4296875 16.98046875 C33.89797528 31.29395136 45.16787624 46.53803829 45.3125 67.5625 C45.33888584 79.60421761 42.92308214 88.09772268 36 98 C49.61996468 88.73940918 57.48180661 79.53926183 61.39794922 63.35253906 C62.42184698 57.65093157 62.31486249 52.0237664 62.1875 46.25 C62.17396484 45.0640625 62.16042969 43.878125 62.14648438 42.65625 C62.11157409 39.77033307 62.06254539 36.88542736 62 34 C59.39402144 34.95362622 56.79026349 35.91267128 54.1875 36.875 C53.44951172 37.14441406 52.71152344 37.41382813 51.95117188 37.69140625 C50.88286133 38.08779297 50.88286133 38.08779297 49.79296875 38.4921875 C49.1383667 38.73308105 48.48376465 38.97397461 47.80932617 39.22216797 C45.72104063 40.05526168 45.72104063 40.05526168 43 42 C42.01 42 41.02 42 40 42 C40 40.68 40 39.36 40 38 C57.58769488 29.58964365 57.58769488 29.58964365 66 30 C67.89486624 44.97406491 69.15591148 60.89270286 63 75 C62.71125 75.72703125 62.4225 76.4540625 62.125 77.203125 C55.65012702 91.88721195 41.88090492 101.02282557 28 108 C31.28889042 109.64444521 34.93324687 109.3990411 38.56640625 109.62109375 C39.36949219 109.74613281 40.17257812 109.87117188 41 110 C41.33 110.66 41.66 111.32 42 112 C41.27409668 111.98952637 40.54819336 111.97905273 39.80029297 111.96826172 C36.49189759 111.9265304 33.18355776 111.90061936 29.875 111.875 C28.16183594 111.84986328 28.16183594 111.84986328 26.4140625 111.82421875 C25.30546875 111.81777344 24.196875 111.81132812 23.0546875 111.8046875 C21.53077393 111.78897705 21.53077393 111.78897705 19.97607422 111.77294922 C16.70901225 112.02220005 14.08806252 112.9372353 11 114 C8.578125 114.25878906 8.578125 114.25878906 6.25 114.265625 C5.3940625 114.26820313 4.538125 114.27078125 3.65625 114.2734375 C2.7796875 114.26570313 1.903125 114.25796875 1 114.25 C-0.31484375 114.26160156 -0.31484375 114.26160156 -1.65625 114.2734375 C-5.33976119 114.26234259 -8.35730935 114.22714272 -11.8515625 112.9921875 C-16.93902457 111.38894263 -22.07884246 111.79390454 -27.375 111.875 C-29.05142578 111.88853516 -29.05142578 111.88853516 -30.76171875 111.90234375 C-33.50803462 111.92581654 -36.25390472 111.95865272 -39 112 C-39 111.34 -39 110.68 -39 110 C-34.38 109.67 -29.76 109.34 -25 109 C-25 108.34 -25 107.68 -25 107 C-25.70769531 106.9071875 -26.41539062 106.814375 -27.14453125 106.71875 C-39.07517657 103.71568743 -50.9312891 91.62218422 -57.53125 81.61328125 C-63.20365143 71.52063082 -64.17125482 61.48826696 -64.125 50.125 C-64.12886719 49.18269531 -64.13273438 48.24039063 -64.13671875 47.26953125 C-64.12864712 41.43373971 -63.74874065 35.78788404 -63 30 C-53.76275153 30.83974986 -46.17334361 33.69041883 -38 38 C-38 39.32 -38 40.64 -38 42 C-42.57844899 40.554174 -46.99907846 38.82089089 -51.4375 37 C-54.26176688 35.89784707 -57.11765081 34.93843927 -60 34 C-60.80985267 61.62388867 -60.80985267 61.62388867 -48.6328125 85.828125 C-44.16253348 90.47504119 -39.82385063 94.21468013 -34 97 C-34.39832031 96.39414063 -34.79664063 95.78828125 -35.20703125 95.1640625 C-42.75221175 83.23129528 -45.21023632 70.88726353 -42.60888672 56.89648438 C-36.85686682 33.24353366 -16.67031651 16.35185345 0 0 Z M-8.40771484 14.16748047 C-9.95867949 15.70893291 -11.51997961 17.23932775 -13.08203125 18.76953125 C-25.86143335 31.41120583 -39.09181479 46.67023705 -39.32910156 65.55908203 C-39.32362305 66.32333496 -39.31814453 67.08758789 -39.3125 67.875 C-39.30831055 68.67147949 -39.30412109 69.46795898 -39.29980469 70.28857422 C-39.18973981 76.00375163 -38.518349 80.81198489 -36 86 C-35.70996094 86.680625 -35.41992188 87.36125 -35.12109375 88.0625 C-30.96803654 97.23745484 -24.92155081 102.48449115 -16 107 C-15.32453125 107.34289062 -14.6490625 107.68578125 -13.953125 108.0390625 C-4.58987845 111.9222694 7.48812774 111.29429714 16.9375 108.0625 C27.88016957 103.21430848 35.35461875 94.85303752 39.75 83.875 C43.8691172 71.84345429 42.68246451 59.22222234 37.5234375 47.703125 C33.78550539 40.43207898 29.36895806 34.14458614 24 28 C22.98486328 26.82050781 22.98486328 26.82050781 21.94921875 25.6171875 C17.47484812 20.52932912 12.77563144 15.67808135 8 10.875 C7.13532104 10.00331177 7.13532104 10.00331177 6.25317383 9.11401367 C-0.54841319 2.33894356 -2.6783625 8.45932832 -8.40771484 14.16748047 Z " fill="#1E2837" transform="translate(289,150)"/>
<path d="M0 0 C4.87046572 4.99534945 5.14369965 9.25765233 5.09765625 15.94921875 C5.0962413 16.72183548 5.09482635 17.49445221 5.09336853 18.29048157 C5.08777466 20.75619389 5.07522333 23.22181515 5.0625 25.6875 C5.05748421 27.36002473 5.05292144 29.03255088 5.04882812 30.70507812 C5.03780724 34.80342046 5.02054684 38.90169479 5 43 C7.64 42.67 10.28 42.34 13 42 C13 43.32 13 44.64 13 46 C7.99101557 49.00539066 4.70101153 49.64366259 -1 49 C-3.5 47.125 -3.5 47.125 -5 45 C-5 44.34 -5 43.68 -5 43 C-5.57105469 43.433125 -6.14210938 43.86625 -6.73046875 44.3125 C-13.63264625 49.05294624 -19.68020184 50.4066238 -28 49 C-32.07157463 46.94700885 -34.20360858 45.25461127 -36 41 C-36.67838411 36.86185691 -36.85070437 34.56830534 -34.8515625 30.8828125 C-30.13239342 24.7824232 -24.15653341 22.40171706 -17 20 C-16.278125 19.75378906 -15.55625 19.50757813 -14.8125 19.25390625 C-11.69584706 18.27995221 -9.31148887 18 -6 18 C-6.06005591 15.89504036 -6.14885359 13.79088565 -6.25 11.6875 C-6.29640625 10.51574219 -6.3428125 9.34398437 -6.390625 8.13671875 C-6.71815412 4.9606975 -6.71815412 4.9606975 -8.7890625 3.09765625 C-12.36780646 1.32093001 -15.03432195 1.7441498 -19 2 C-19.99 2.495 -19.99 2.495 -21 3 C-21.60076256 5.27399754 -21.9563154 7.55130576 -22.33984375 9.87109375 C-23 12 -23 12 -26 14 C-28.5625 14.25 -28.5625 14.25 -31 14 C-33 12 -33 12 -33.375 9.1875 C-32.90537876 5.1957195 -31.86320614 3.78785861 -29 1 C-20.40374131 -4.12117539 -8.87805804 -5.18741035 0 0 Z " fill="#202939" transform="translate(540,358)"/>
<path d="M0 0 C11.96425701 -0.20132163 24.48980439 6.06548237 34 13 C34 13.66 34 14.32 34 15 C32.53808594 16.30932617 32.53808594 16.30932617 30.484375 17.79296875 C29.73341553 18.33775879 28.98245605 18.88254883 28.20874023 19.44384766 C27.39735596 20.01925293 26.58597168 20.5946582 25.75 21.1875 C24.92894775 21.77321777 24.10789551 22.35893555 23.26196289 22.96240234 C7.82411133 33.86522434 -7.05206021 41.76545724 -26.609375 38.57421875 C-33.86134568 36.64272983 -40.6623163 32.96702675 -47 29 C-47.33 28.34 -47.66 27.68 -48 27 C-46.83984375 26.91363281 -45.6796875 26.82726562 -44.484375 26.73828125 C-29.60689217 25.4679019 -17.05572943 22.02185586 -6.75 10.5625 C-4.0487056 7.25599757 -1.99875658 3.7668874 0 0 Z " fill="#68A6C0" transform="translate(354,266)"/>
<path d="M0 0 C0.33 16.83 0.66 33.66 1 51 C3.31 48.69 5.62 46.38 8 44 C9.40070922 42.77320434 10.81385249 41.56011359 12.25 40.375 C15.19092781 37.85013368 17.28498432 35.53721984 19 32 C17.02 32 15.04 32 13 32 C13 31.01 13 30.02 13 29 C20.26 29 27.52 29 35 29 C35 29.99 35 30.98 35 32 C33.906875 32.144375 32.81375 32.28875 31.6875 32.4375 C24.20724922 34.25413233 18.2262419 40.6001288 13 46 C14.40092508 49.02825801 16.05874825 51.53034878 18.1171875 54.15234375 C18.72433594 54.92900391 19.33148438 55.70566406 19.95703125 56.50585938 C20.58996094 57.30830078 21.22289062 58.11074219 21.875 58.9375 C22.50019531 59.73607422 23.12539062 60.53464844 23.76953125 61.35742188 C24.97674359 62.89770231 26.18753395 64.43518695 27.40234375 65.96948242 C28.70422474 67.62408881 29.97755111 69.30113075 31.2421875 70.984375 C33.52284452 73.59952838 35.68504362 74.1712609 39 75 C39 75.99 39 76.98 39 78 C31.08 78 23.16 78 15 78 C15 77.01 15 76.02 15 75 C16.32 75 17.64 75 19 75 C16.27387115 69.99997395 13.27659294 65.52712566 9.75 61.0625 C9.29109375 60.47404297 8.8321875 59.88558594 8.359375 59.27929688 C7.24360502 57.84971658 6.12238102 56.42439577 5 55 C3.68 55.66 2.36 56.32 1 57 C1 62.61 1 68.22 1 74 C2.98 74.33 4.96 74.66 7 75 C7 75.99 7 76.98 7 78 C-1.25 78 -9.5 78 -18 78 C-18 77.01 -18 76.02 -18 75 C-14.535 74.01 -14.535 74.01 -11 73 C-11 51.88 -11 30.76 -11 9 C-13.64 8.34 -16.28 7.68 -19 7 C-19 6.01 -19 5.02 -19 4 C-16.58490559 3.32713788 -14.16819644 2.66153988 -11.75 2 C-11.06808594 1.80921875 -10.38617188 1.6184375 -9.68359375 1.421875 C-6.29399088 0.50042956 -3.54221024 0 0 0 Z " fill="#182131" transform="translate(45,328)"/>
<path d="M0 0 C1.61383629 1.99750302 2.8400114 3.80792531 4.125 6 C10.82074108 16.47267982 20.07893511 21.95387347 31.83203125 25.5625 C34.9570202 26.1931284 38.07060443 26.35642807 41.25 26.5625 C42.51328125 26.64628906 43.7765625 26.73007812 45.078125 26.81640625 C46.52445313 26.90728516 46.52445313 26.90728516 48 27 C40.57401838 35.35422932 30.48160311 38.29912747 19.5390625 39.32421875 C-1.35402143 39.99298192 -17.31257261 27.22396939 -33 15 C-31.49546424 10.48639271 -28.27530402 9.69446398 -24.1953125 7.55859375 C-6.40755778 -1.11782939 -6.40755778 -1.11782939 0 0 Z " fill="#67A6BF" transform="translate(226,266)"/>
<path d="M0 0 C4.05533874 4.81355814 4.5995966 8.44024908 4.609375 14.4609375 C4.62591125 15.25150543 4.64244751 16.04207336 4.65948486 16.8565979 C4.70777488 19.36281244 4.72929243 21.86842112 4.75 24.375 C4.77817574 26.08206142 4.80810542 27.78909485 4.83984375 29.49609375 C4.91352809 33.66401257 4.96321812 37.8315988 5 42 C7.64 42 10.28 42 13 42 C13 43.32 13 44.64 13 46 C8.13507436 48.38282072 4.540694 49.73178977 -1 49 C-3.4375 47.125 -3.4375 47.125 -5 45 C-5 44.34 -5 43.68 -5 43 C-5.61488281 43.34933594 -6.22976563 43.69867188 -6.86328125 44.05859375 C-8.07564453 44.74115234 -8.07564453 44.74115234 -9.3125 45.4375 C-10.11300781 45.88996094 -10.91351563 46.34242188 -11.73828125 46.80859375 C-17.01682871 49.58917574 -22.16287181 49.46217731 -28 49 C-31.69566042 47.61412734 -32.6791378 46.49788961 -34.8125 43.1875 C-36.10627958 39.71472323 -36.53441905 37.66458779 -36 34 C-31.48459081 24.78103957 -22.24750639 22.13803447 -13.171875 18.91796875 C-10 18 -10 18 -6 18 C-6.06029967 16.08247047 -6.14916707 14.16582574 -6.25 12.25 C-6.29640625 11.18265625 -6.3428125 10.1153125 -6.390625 9.015625 C-7.11990329 5.40663245 -8.05763793 4.16778266 -11 2 C-14.38917777 1.30298042 -17.87057535 1.43528767 -21 3 C-21.60076256 5.27399754 -21.9563154 7.55130576 -22.33984375 9.87109375 C-23 12 -23 12 -26 14 C-28.5625 14.25 -28.5625 14.25 -31 14 C-33 12 -33 12 -33.375 9.1875 C-32.89354488 5.09513148 -32.02387534 3.80261617 -29 1 C-20.21072802 -4.7046649 -9.1711898 -4.91313739 0 0 Z " fill="#1A2335" transform="translate(285,358)"/>
<path d="M0 0 C2.69136979 1.64730392 3.55567751 3.21868327 4.8125 6.109375 C5.33311469 10.79490723 5.44235094 13.65056025 2.8125 17.609375 C1.8225 18.846875 1.8225 18.846875 0.8125 20.109375 C3.18647039 20.41229873 3.18647039 20.41229873 5.8125 20.109375 C7.53451943 18.59543032 7.53451943 18.59543032 8.8125 16.484375 C9.31265625 15.75863281 9.8128125 15.03289062 10.328125 14.28515625 C10.81796875 13.56714844 11.3078125 12.84914062 11.8125 12.109375 C16.25152439 6.3898628 16.25152439 6.3898628 18.8125 5.109375 C23.37530819 4.72914098 25.88650938 4.68199471 30.0625 6.609375 C34.39882826 10.5514916 36.42504605 14.16788786 37.1953125 20.015625 C37.48809176 27.74499734 36.11597369 33.19414692 31.125 39.109375 C27.3877903 40.72546568 23.80752299 40.74828493 19.8125 40.109375 C17.3125 38.609375 17.3125 38.609375 15.8125 36.109375 C15.21370142 33.40445729 14.99797527 30.89150399 14.8125 28.109375 C15.328125 28.439375 15.84375 28.769375 16.375 29.109375 C19.72652596 30.48436001 22.22215387 30.49405494 25.8125 30.109375 C28.71967073 27.89074471 29.65231643 26.58992571 30.8125 23.109375 C30.90453743 21.59075745 30.94251284 20.06827074 30.9375 18.546875 C30.94007813 17.76183594 30.94265625 16.97679687 30.9453125 16.16796875 C30.94226366 14.04498523 30.94226366 14.04498523 29.8125 12.109375 C26.99181026 11.65973294 26.99181026 11.65973294 23.8125 12.109375 C21.4222379 14.42541854 21.4222379 14.42541854 19.5625 17.484375 C15.8125 23.109375 15.8125 23.109375 13.8125 25.109375 C10.1875 25.234375 10.1875 25.234375 6.8125 25.109375 C7.13476562 25.65851563 7.45703125 26.20765625 7.7890625 26.7734375 C9.66335437 31.05140138 9.34280221 35.53551841 8.8125 40.109375 C7.02299365 43.96369636 5.54915715 45.60710876 2.0625 47.984375 C-2.70679073 49.63528333 -6.62700646 50.17427527 -11.30078125 48.23046875 C-18.65195892 44.03572895 -22.26608852 38.23566322 -24.6953125 30.265625 C-25.32595993 27.50278863 -25.40439402 24.92899725 -25.1875 22.109375 C-22.49290185 24.47101993 -21.33527465 26.77391675 -19.9375 30.046875 C-17.40090902 35.2106495 -15.65627874 37.19530244 -10.1875 39.109375 C-5.94257126 39.18012381 -2.20219755 38.44760752 1.8125 37.109375 C1.89346803 35.65195037 1.95167774 34.19324693 2 32.734375 C2.03480469 31.92226562 2.06960938 31.11015625 2.10546875 30.2734375 C2.00878906 29.55929688 1.91210938 28.84515625 1.8125 28.109375 C-1.27638522 26.05011819 -1.89685927 25.8703376 -5.375 25.984375 C-6.633125 26.025625 -7.89125 26.066875 -9.1875 26.109375 C-10.1775 22.809375 -11.1675 19.509375 -12.1875 16.109375 C-10.57875 15.8 -8.97 15.490625 -7.3125 15.171875 C-3.63469385 14.48188855 -3.63469385 14.48188855 -0.1875 13.109375 C-0.1875 11.789375 -0.1875 10.469375 -0.1875 9.109375 C-3.6456262 7.3803119 -7.47049132 8.46851143 -11.1875 9.109375 C-14.10259282 10.05414054 -14.10259282 10.05414054 -16.1875 11.109375 C-20.1875 5.359375 -20.1875 5.359375 -20.1875 3.109375 C-13.80890759 -0.67053161 -7.254412 -2.95358203 0 0 Z " fill="#181F2D" transform="translate(284.1875,197.890625)"/>
<path d="M0 0 C3.93186091 2.25872861 6.02312872 4.94741388 8 9 C10.45891031 18.30259075 10.69672826 30.78206709 6.16796875 39.37109375 C4.00771484 42.38388934 2.57399246 43.80866918 -1 45 C-7.96955504 45.56206089 -7.96955504 45.56206089 -11.75 43.5 C-18.58055938 35.91048958 -19.37176072 27.23164166 -19.28125 17.33203125 C-18.75732911 11.12502406 -16.78263134 6.202074 -12.875 1.375 C-8.58081434 -0.67874097 -4.67048241 -0.7617426 0 0 Z " fill="#FAFAFA" transform="translate(404,359)"/>
<path d="M0 0 C7.92 0 15.84 0 24 0 C24 0.99 24 1.98 24 3 C22.35 3.33 20.7 3.66 19 4 C19.56456367 8.19737456 20.53930484 11.658606 22.28515625 15.51171875 C22.73310547 16.51654297 23.18105469 17.52136719 23.64257812 18.55664062 C24.11115234 19.58982422 24.57972656 20.62300781 25.0625 21.6875 C25.99588854 23.75165118 26.92451049 25.81796642 27.84765625 27.88671875 C28.26023682 28.79639404 28.67281738 29.70606934 29.09790039 30.64331055 C30 33 30 33 30 36 C30.66 36 31.32 36 32 36 C32.16870605 35.46415283 32.33741211 34.92830566 32.51123047 34.3762207 C34.40957342 28.49921977 36.67211597 22.85249407 39.125 17.1875 C39.83867151 15.53633527 40.54971164 13.88403011 41.2578125 12.23046875 C41.5686377 11.51270264 41.87946289 10.79493652 42.19970703 10.05541992 C42.97906157 8.05377688 43.52826754 6.09334961 44 4 C42.02 4 40.04 4 38 4 C37.505 2.02 37.505 2.02 37 0 C43.27 0 49.54 0 56 0 C55.67 1.32 55.34 2.64 55 4 C54.23502197 4.05317383 53.47004395 4.10634766 52.68188477 4.16113281 C49.81785731 4.75161899 49.81785731 4.75161899 48.42944336 7.31542969 C47.98737549 8.34055664 47.54530762 9.36568359 47.08984375 10.421875 C46.58074463 11.57921143 46.07164551 12.73654785 45.54711914 13.92895508 C45.01025876 15.20250159 44.47372719 16.47618675 43.9375 17.75 C43.37190878 19.05234956 42.80474733 20.35401823 42.23608398 21.6550293 C39.29254946 28.42957981 36.47389524 35.25406625 33.6953125 42.09765625 C33.4297908 42.749086 33.1642691 43.40051575 32.89070129 44.07168579 C31.61987131 47.1924433 30.36469848 50.31692938 29.13452148 53.45410156 C26.07069122 61.08902572 23.02885207 68.31409862 16 73 C13.84375 73.30078125 13.84375 73.30078125 11.5 73.3125 C10.33984375 73.33763672 10.33984375 73.33763672 9.15625 73.36328125 C7 73 7 73 5.203125 71.70703125 C4 70 4 70 4.25 66.375 C5 63 5 63 6 62 C8.9375 61.8125 8.9375 61.8125 12 62 C12.66 62.66 13.32 63.32 14 64 C16.49572061 64.08337907 16.49572061 64.08337907 19 63 C20.94646225 60.67689682 20.94646225 60.67689682 22.375 57.75 C22.89835937 56.79609375 23.42171875 55.8421875 23.9609375 54.859375 C25.86282472 49.62561017 23.47451942 45.49078967 21.26953125 40.625 C20.99662766 40.01922119 20.72372406 39.41344238 20.44255066 38.78930664 C19.5707107 36.85730421 18.6916945 34.92866491 17.8125 33 C17.24107168 31.73588708 16.6701043 30.47156569 16.09960938 29.20703125 C14.96925319 26.70226976 13.82691958 24.20342616 12.67822266 21.70703125 C11.54017998 19.22283635 10.45826699 16.72321897 9.41162109 14.19921875 C8.90840332 13.01972656 8.40518555 11.84023438 7.88671875 10.625 C7.44932373 9.56539063 7.01192871 8.50578125 6.5612793 7.4140625 C5.20210893 4.75148478 5.20210893 4.75148478 2.31958008 4.1484375 C1.55411865 4.09945313 0.78865723 4.05046875 0 4 C0 2.68 0 1.36 0 0 Z " fill="#212939" transform="translate(307,356)"/>
<path d="M0 0 C7.92 0 15.84 0 24 0 C24 0.99 24 1.98 24 3 C22.35 3.33 20.7 3.66 19 4 C19.65205656 8.01290529 20.9044552 11.44372879 22.50390625 15.17578125 C22.99697266 16.33271484 23.49003906 17.48964844 23.99804688 18.68164062 C24.51431641 19.87982422 25.03058594 21.07800781 25.5625 22.3125 C26.0883279 23.54213081 26.61372303 24.77194678 27.13867188 26.00195312 C28.42153664 29.00315052 29.70878448 32.00238815 31 35 C34.35830981 28.41911121 37.6093309 21.87814456 40.3125 15 C40.56322266 14.37222656 40.81394531 13.74445313 41.07226562 13.09765625 C42.2541863 10.10007728 43.32947882 7.15539379 44 4 C42.02 4 40.04 4 38 4 C37.505 2.02 37.505 2.02 37 0 C43.27 0 49.54 0 56 0 C56 0.99 56 1.98 56 3 C55.08250977 3.18546387 54.16501953 3.37092773 53.21972656 3.56201172 C49.00357704 5.44502057 48.08037941 7.92384226 46.484375 12.0078125 C46.18690369 12.71744644 45.88943237 13.42708038 45.58294678 14.15821838 C44.61830246 16.47264486 43.68466085 18.79832466 42.75 21.125 C42.08880158 22.72072673 41.42537647 24.31553257 40.75976562 25.90942383 C37.79274742 33.04072815 34.91369077 40.2068689 32.046875 47.37890625 C31.61020508 48.45833496 31.17353516 49.53776367 30.72363281 50.64990234 C29.93569246 52.60591868 29.1629446 54.56815906 28.40917969 56.53759766 C25.88757565 62.8369852 22.34084956 69.82957522 16 73 C14.50350638 73.12005453 13.00125207 73.17531451 11.5 73.1875 C10.7059375 73.20167969 9.911875 73.21585937 9.09375 73.23046875 C7 73 7 73 5 71 C4.6875 67.5 4.6875 67.5 5 64 C8 62 8 62 10.9375 62.25 C13.61562832 62.90586816 15.5877378 63.72874303 18 65 C23.20685636 57.77448558 23.20685636 57.77448558 24.77319336 49.38525391 C23.79594129 45.10657465 22.11704907 41.4197223 20.25390625 37.4609375 C19.88273178 36.65766022 19.51155731 35.85438293 19.12913513 35.02676392 C17.9470486 32.47296044 16.75488029 29.92401091 15.5625 27.375 C14.76431973 25.6539491 13.96678687 23.93259778 13.16992188 22.2109375 C11.70773384 19.05726328 10.24339727 15.90463358 8.77172852 12.75537109 C8.47718277 12.12504974 8.18263702 11.49472839 7.87916565 10.8453064 C7.58904099 10.23635529 7.29891632 9.62740417 7 9 C6.68759872 8.28832672 6.37519745 7.57665344 6.05332947 6.84341431 C4.57180897 4.25063003 2.76991414 3.87470973 0 3 C0 2.01 0 1.02 0 0 Z " fill="#1D2636" transform="translate(182,356)"/>
<path d="M0 0 C2 3 2 3 1.6875 5.625 C1 8 1 8 0 9 C-1.85772162 8.91015699 -3.71247985 8.75388139 -5.5625 8.5625 C-6.57441406 8.46066406 -7.58632813 8.35882813 -8.62890625 8.25390625 C-9.41136719 8.17011719 -10.19382812 8.08632813 -11 8 C-11.3445794 12.07419898 -11.3445794 12.07419898 -9 15.3125 C-6.78135942 19.01549798 -6.45556516 21.64452129 -7 26 C-9.20922201 32.74394086 -12.18874223 36.54417008 -18.5 39.8125 C-24.14427916 41.74458017 -30.11807953 41.24209124 -36 41 C-36 40.67 -36 40.34 -36 40 C-31.05 39.505 -31.05 39.505 -26 39 C-26.7425 38.7525 -27.485 38.505 -28.25 38.25 C-32.32344036 36.3984362 -34.36128223 34.3732432 -36.25 30.3125 C-37.55357288 24.55505313 -38.08534936 19.39187814 -35.1875 14.0625 C-33 11 -33 11 -30 9 C-30.99 8.34 -31.98 7.68 -33 7 C-31.29663999 5.29663999 -29.13553774 5.82817502 -26.8125 5.8125 C-22.4952776 5.84060692 -19.01157497 6.26526488 -15 8 C-14.7525 7.236875 -14.505 6.47375 -14.25 5.6875 C-11.40897937 -0.42069435 -6.29769988 -1.24008762 0 0 Z " fill="#1B2435" transform="translate(491,349)"/>
<path d="M0 0 C0.33 2.97 0.66 5.94 1 9 C1.721875 8.071875 2.44375 7.14375 3.1875 6.1875 C6.34549951 2.43515788 9.05760732 0.32373211 14 -0.5 C18.13707399 0.18951233 19.57845709 1.62451595 22 5 C21.9263784 8.75470151 21.67158839 10.32841161 19 13 C15.875 13.125 15.875 13.125 13 13 C12.34 11.68 11.68 10.36 11 9 C7.15831435 9.87311038 5.35559752 10.56622288 2.82348633 13.6550293 C0.76014562 17.43998459 0.52124012 19.61789714 0.57421875 23.89453125 C0.58259766 25.17908203 0.59097656 26.46363281 0.59960938 27.78710938 C0.61403076 28.44735107 0.62845215 29.10759277 0.64331055 29.7878418 C0.6877577 31.8243071 0.70480796 33.8595919 0.71679688 35.89648438 C0.21322352 41.83237866 0.21322352 41.83237866 2 47 C4.32817964 47.36760731 6.6618385 47.70241581 9 48 C9 48.99 9 49.98 9 51 C0.09 51 -8.82 51 -18 51 C-18 50.01 -18 49.02 -18 48 C-15.69 47.34 -13.38 46.68 -11 46 C-11 34.12 -11 22.24 -11 10 C-13.64 9.34 -16.28 8.68 -19 8 C-18.67 6.68 -18.34 5.36 -18 4 C-15.5636811 3.32873871 -13.12611117 2.66283646 -10.6875 2 C-9.65206055 1.71382813 -9.65206055 1.71382813 -8.59570312 1.421875 C-5.64212051 0.62283816 -3.07440781 0 0 0 Z " fill="#1B2333" transform="translate(113,355)"/>
<path d="M0 0 C15.97364428 -0.79536818 29.54593985 2.42840173 42.234375 12.83203125 C45.47119693 15.90166197 47.79853163 18.59461597 49 23 C39.66977399 26.11007534 27.399049 24.95483151 18.6796875 20.6796875 C11.22871642 16.00925373 4.49598891 9.6212495 0 2 C0 1.34 0 0.68 0 0 Z " fill="#AB7C3C" transform="translate(230,265)"/>
<path d="M0 0 C1.25425781 0.00902344 2.50851562 0.01804687 3.80078125 0.02734375 C4.75339844 0.03894531 5.70601563 0.05054688 6.6875 0.0625 C5.23564543 7.65941345 -1.20665046 13.72515234 -7.3125 18.0625 C-17.4621489 24.27073594 -27.73042476 24.61648135 -39.3125 24.0625 C-40.3025 23.7325 -41.2925 23.4025 -42.3125 23.0625 C-38.18046798 13.55021795 -28.18557785 6.84888291 -18.85546875 3.06640625 C-12.48755987 0.85928692 -6.76976232 -0.06326881 0 0 Z " fill="#A97D3E" transform="translate(343.3125,264.9375)"/>
<path d="M0 0 C0 0.66 0 1.32 0 2 C-2.5 3.625 -2.5 3.625 -5 5 C-4.14728516 4.69255859 -4.14728516 4.69255859 -3.27734375 4.37890625 C-2.50519531 4.10949219 -1.73304688 3.84007812 -0.9375 3.5625 C-0.18339844 3.29566406 0.57070313 3.02882813 1.34765625 2.75390625 C4.53970842 1.84659245 7.71120235 1.41462198 11 1 C11.02703562 3.58340384 11.04685611 6.16652308 11.0625 8.75 C11.07087891 9.47960937 11.07925781 10.20921875 11.08789062 10.9609375 C11.10391684 14.48670558 10.95292713 17.61034916 10 21 C10.66 21.33 11.32 21.66 12 22 C10.56429734 22.81567174 9.12636566 23.62742093 7.6875 24.4375 C6.88699219 24.88996094 6.08648437 25.34242188 5.26171875 25.80859375 C-0.01682871 28.58917574 -5.16287181 28.46217731 -11 28 C-14.69566042 26.61412734 -15.6791378 25.49788961 -17.8125 22.1875 C-19.10627958 18.71472323 -19.53441905 16.66458779 -19 13 C-15.80242793 6.47162369 -10.50664543 3.60085987 -4.125 0.6875 C-2 0 -2 0 0 0 Z " fill="#1E2736" transform="translate(268,379)"/>
<path d="M0 0 C0.99 1.485 0.99 1.485 2 3 C3.615449 3.20193113 5.23182555 3.398476 6.8515625 3.5625 C11.19424124 4.44682731 15.32096795 6.56140788 19 9 C20.261355 12.78406501 19.46787459 13.82804484 18.0625 17.5 C14.02963635 30.06230001 14.56478855 42.98915326 20 55 C20 55.66 20 56.32 20 57 C12.8545323 54.05587634 8.3973328 46.31531839 5.125 39.625 C-0.04451434 27.11755088 0.43753608 13.32528596 0 0 Z " fill="#6BA4BD" transform="translate(229,184)"/>
<path d="M0 0 C4.11352861 12.34058584 1.66608193 28.53970867 -4 40 C-7.47775961 45.66955695 -11.71707655 50.00559446 -17 54 C-16.68168213 53.0112085 -16.68168213 53.0112085 -16.35693359 52.00244141 C-14.25306491 44.99570828 -13.53723433 38.66930213 -13.625 31.375 C-13.60759766 29.91707031 -13.60759766 29.91707031 -13.58984375 28.4296875 C-13.61282354 22.73070032 -14.42401846 18.25382873 -16.38891602 12.9230957 C-17.26273888 10.17315454 -17.27493896 8.60201296 -16 6 C-13.41796875 4.19921875 -13.41796875 4.19921875 -10.1875 2.6875 C-9.12917969 2.17574219 -8.07085937 1.66398438 -6.98046875 1.13671875 C-4 0 -4 0 0 0 Z " fill="#6AA3BD" transform="translate(349,187)"/>
<path d="M0 0 C0 15.51 0 31.02 0 47 C2.64 47.33 5.28 47.66 8 48 C8 48.99 8 49.98 8 51 C-0.58 51 -9.16 51 -18 51 C-18 50.01 -18 49.02 -18 48 C-15.69 47.34 -13.38 46.68 -11 46 C-10.67 33.79 -10.34 21.58 -10 9 C-12.64 8.67 -15.28 8.34 -18 8 C-18 6.68 -18 5.36 -18 4 C-15.5636811 3.32873871 -13.12611117 2.66283646 -10.6875 2 C-9.65206055 1.71382813 -9.65206055 1.71382813 -8.59570312 1.421875 C-5.64212051 0.62283816 -3.07440781 0 0 0 Z " fill="#182233" transform="translate(164,355)"/>
<path d="M0 0 C3.96 0 7.92 0 12 0 C12.43828125 1.01578125 12.8765625 2.0315625 13.328125 3.078125 C19.91844669 17.6561228 28.71801044 26.71690028 42.578125 34.57421875 C43.37734375 35.04472656 44.1765625 35.51523438 45 36 C45 36.33 45 36.66 45 37 C32.51751875 37.57026564 23.66685366 35.23203605 13.93359375 27.3203125 C5.90246552 19.97495423 1.76927065 10.61562387 0 0 Z " fill="#A97B40" transform="translate(213,220)"/>
<path d="M0 0 C3.96 0 7.92 0 12 0 C10.92391195 10.82986055 5.14213908 21.72329436 -3 29 C-11.12903784 35.58642724 -20.74303809 37.50444075 -31 37 C-28.14080975 33.98048133 -25.16665408 31.61237225 -21.75 29.25 C-10.75969856 21.27033964 -4.33139915 12.99419744 0 0 Z " fill="#AB7E3F" transform="translate(355,220)"/>
<path d="M0 0 C1.31581055 -0.00386719 1.31581055 -0.00386719 2.65820312 -0.0078125 C9.00951529 0.08719591 14.50393161 0.81643161 19.1875 5.5 C19.1875 8.8579422 19.13036725 11.41968855 16.84765625 14.03515625 C11.99473213 18.10496792 9.18500494 18.67649994 2.9375 18.75 C1.63296875 18.77578125 0.3284375 18.8015625 -1.015625 18.828125 C-5.83976217 18.41122426 -9.19712542 17.06152876 -12.6875 13.6875 C-14.22792833 10.69222268 -14.28820543 8.829938 -13.8125 5.5 C-10.5074055 -0.71759491 -6.34199956 -0.20235532 0 0 Z " fill="#F8F9F9" transform="translate(462.8125,407.5)"/>
<path d="M0 0 C2.5249292 0.02266543 3.8162412 0.11350012 5.85546875 1.63671875 C10.05583857 6.52688538 10.53777104 10.99133026 10.4765625 17.18359375 C10.04846617 21.4424141 8.2231543 24.4643457 5.25 27.4375 C-1.75869565 28.11576087 -1.75869565 28.11576087 -5.125 25.8125 C-8.76195714 20.49694726 -9.67998665 14.75046819 -8.75 8.4375 C-6.75471087 3.58921826 -5.35050664 0.62422577 0 0 Z " fill="#F7F8F9" transform="translate(462.75,358.5625)"/>
<path d="M0 0 C1.89486624 14.97406491 3.15591148 30.89270286 -3 45 C-3.28875 45.72703125 -3.5775 46.4540625 -3.875 47.203125 C-7.40688184 55.21292845 -13.29291362 62.76110249 -21 67 C-21.66 65.68 -22.32 64.36 -23 63 C-22.50371094 62.62230469 -22.00742187 62.24460938 -21.49609375 61.85546875 C-11.24848444 53.55237734 -5.87843263 42.89573484 -4 30 C-3.92266151 27.91003127 -3.89199042 25.81793605 -3.90234375 23.7265625 C-3.90717773 21.99599609 -3.90717773 21.99599609 -3.91210938 20.23046875 C-3.92048828 19.04066406 -3.92886719 17.85085937 -3.9375 16.625 C-3.94201172 15.41199219 -3.94652344 14.19898438 -3.95117188 12.94921875 C-3.96291646 9.96609493 -3.9793416 6.98307321 -4 4 C-6.60597856 4.95362622 -9.20973651 5.91267128 -11.8125 6.875 C-12.55048828 7.14441406 -13.28847656 7.41382813 -14.04882812 7.69140625 C-14.76103516 7.95566406 -15.47324219 8.21992188 -16.20703125 8.4921875 C-16.8616333 8.73308105 -17.51623535 8.97397461 -18.19067383 9.22216797 C-20.27895937 10.05526168 -20.27895937 10.05526168 -23 12 C-23.99 12 -24.98 12 -26 12 C-26 10.68 -26 9.36 -26 8 C-8.41230512 -0.41035635 -8.41230512 -0.41035635 0 0 Z " fill="#272E3A" transform="translate(355,180)"/>
<path d="M0 0 C11.96425701 -0.20132163 24.48980439 6.06548237 34 13 C34 13.66 34 14.32 34 15 C32.53808594 16.30932617 32.53808594 16.30932617 30.484375 17.79296875 C29.73341553 18.33775879 28.98245605 18.88254883 28.20874023 19.44384766 C27.39735596 20.01925293 26.58597168 20.5946582 25.75 21.1875 C24.92894775 21.77321777 24.10789551 22.35893555 23.26196289 22.96240234 C7.82411133 33.86522434 -7.05206021 41.76545724 -26.609375 38.57421875 C-33.86134568 36.64272983 -40.6623163 32.96702675 -47 29 C-47.33 28.34 -47.66 27.68 -48 27 C-46.83984375 26.91363281 -45.6796875 26.82726562 -44.484375 26.73828125 C-29.60689217 25.4679019 -17.05572943 22.02185586 -6.75 10.5625 C-4.0487056 7.25599757 -1.99875658 3.7668874 0 0 Z M2 2 C0.34500455 3.98659202 -1.14046642 5.9550872 -2.625 8.0625 C-11.51860222 20.04805026 -21.98743313 25.79503582 -36.8125 28.3125 C-38.5396994 28.55605076 -40.26828661 28.79094631 -42 29 C-31.63423482 37.12022743 -19.53846481 36.74815149 -7 36 C-3.37128314 35.45730217 -0.32917357 34.52441106 3 33 C3.81726563 32.63261719 4.63453125 32.26523437 5.4765625 31.88671875 C11.63332373 28.80833813 17.15558451 24.87814669 22.6875 20.8125 C23.40760254 20.28922119 24.12770508 19.76594238 24.86962891 19.22680664 C25.53526855 18.72528076 26.2009082 18.22375488 26.88671875 17.70703125 C27.48701904 17.2581958 28.08731934 16.80936035 28.70581055 16.34692383 C30.34642504 14.95077939 30.34642504 14.95077939 30 12 C16.71567976 4.67759583 16.71567976 4.67759583 2 2 Z " fill="#D7E8EE" transform="translate(354,266)"/>
<path d="M0 0 C1.61383629 1.99750302 2.8400114 3.80792531 4.125 6 C10.82074108 16.47267982 20.07893511 21.95387347 31.83203125 25.5625 C34.9570202 26.1931284 38.07060443 26.35642807 41.25 26.5625 C42.51328125 26.64628906 43.7765625 26.73007812 45.078125 26.81640625 C46.52445313 26.90728516 46.52445313 26.90728516 48 27 C44.16968294 31.30910669 40.32061945 33.79670551 35 36 C34.12988281 36.36480469 33.25976562 36.72960937 32.36328125 37.10546875 C27.89206407 38.2946775 23.72670581 38.21509364 19.125 38.125 C18.24585938 38.11597656 17.36671875 38.10695313 16.4609375 38.09765625 C14.3071729 38.07424577 12.15354986 38.0383801 10 38 C10 37.34 10 36.68 10 36 C11.09957031 35.97421875 12.19914062 35.9484375 13.33203125 35.921875 C23.06755172 35.58673762 31.16463097 34.41768451 40 30 C38.94941406 29.76925781 37.89882813 29.53851563 36.81640625 29.30078125 C22.27091546 25.98080332 11.04314928 20.46799012 1.875 8.0625 C0 5 0 5 0 3 C-10.16900777 4.67645247 -19.14877234 7.7269282 -28 13 C-28.66 13 -29.32 13 -30 13 C-26.58402022 16.70208976 -22.75417702 19.47566459 -18.625 22.3125 C-17.92761719 22.79307861 -17.23023438 23.27365723 -16.51171875 23.76879883 C-9.96908945 28.18403838 -3.17227601 31.71644239 4 35 C4 35.33 4 35.66 4 36 C-10.13156897 34.66347078 -22.17119433 23.43803039 -33 15 C-31.49546424 10.48639271 -28.27530402 9.69446398 -24.1953125 7.55859375 C-6.40755778 -1.11782939 -6.40755778 -1.11782939 0 0 Z " fill="#DBEBF1" transform="translate(226,266)"/>
<path d="M0 0 C1.14939677 4.31023788 1.00537335 8.37663906 0.83984375 12.79296875 C0.77333334 15.20938316 0.77333334 15.20938316 3 17 C5.0719137 17.31889832 5.0719137 17.31889832 7.375 17.25 C8.14585937 17.25515625 8.91671875 17.2603125 9.7109375 17.265625 C12.1992361 16.97688045 13.84234198 16.24139229 16 15 C16.33 16.32 16.66 17.64 17 19 C11.27781211 23.84052148 6.43618177 24.53950833 -0.94921875 24.46875 C-5.32359054 23.79663141 -8.00228196 22.20414246 -10.8125 18.8125 C-12.39276419 15.06976902 -13.01301742 11.92993282 -12 8 C-8.88698093 2.88139442 -6.30819297 -0.61011884 0 0 Z " fill="#202938" transform="translate(516,383)"/>
<path d="M0 0 C0.16262928 2.73156959 0.28110686 5.45342122 0.375 8.1875 C0.45041016 9.34088867 0.45041016 9.34088867 0.52734375 10.51757812 C0.67049837 16.07674904 0.67049837 16.07674904 -1.19750977 18.64892578 C-4.16276415 21.30013428 -6.7184569 22.66624264 -10.6875 22.5 C-11.43386719 22.4896875 -12.18023438 22.479375 -12.94921875 22.46875 C-15.55229928 21.87376016 -16.45193956 21.16919581 -18 19 C-18.7465078 15.58573952 -18.65361105 12.42733861 -18 9 C-14.01054178 4.17065584 -6.41334211 0 0 0 Z " fill="#F9FAFA" transform="translate(534,379)"/>
<path d="M0 0 C0.1081866 2.58445773 0.18737237 5.16437352 0.25 7.75 C0.30027344 8.84441406 0.30027344 8.84441406 0.3515625 9.9609375 C0.41629919 13.52145536 0.33062417 15.55634193 -1.828125 18.453125 C-5.89603956 21.35041666 -10.16047004 21.69568243 -15 21 C-17 19.5 -17 19.5 -18 17 C-18.4895312 12.59421918 -18.59944913 10.19889827 -16.625 6.25 C-11.84178496 2.1501014 -6.28425756 0 0 0 Z " fill="#F8FAFA" transform="translate(279,380)"/>
<path d="M0 0 C3.22986599 15.99304613 1.9640021 34.07576844 -7 48 C-11.7836941 54.16483714 -17.22326718 60.00221517 -24 64 C-24.66 64 -25.32 64 -26 64 C-25.72285156 63.4534375 -25.44570313 62.906875 -25.16015625 62.34375 C-23.87525658 59.7479931 -22.64827004 57.13116593 -21.4375 54.5 C-20.78587891 53.09234375 -20.78587891 53.09234375 -20.12109375 51.65625 C-15.94677006 41.76586634 -16.10588287 26.47472692 -19.9375 16.5625 C-20.30230469 15.76328125 -20.66710937 14.9640625 -21.04296875 14.140625 C-22.40004026 11.10521607 -22.70737232 8.29206145 -23 5 C-22.67 5.99 -22.34 6.98 -22 8 C-21.13117188 7.59007812 -20.26234375 7.18015625 -19.3671875 6.7578125 C-18.21476562 6.21898437 -17.06234375 5.68015625 -15.875 5.125 C-14.16957031 4.32449219 -14.16957031 4.32449219 -12.4296875 3.5078125 C-4.4507772 0 -4.4507772 0 0 0 Z M-12.1875 5.6875 C-13.25355469 6.18636719 -14.31960938 6.68523437 -15.41796875 7.19921875 C-18.09561373 8.75654232 -18.09561373 8.75654232 -19.05078125 11.14453125 C-19.00098404 13.94466675 -18.54018644 15.51270166 -17.5859375 18.1015625 C-15.60815789 23.55229605 -15.55635825 28.62434675 -15.625 34.375 C-15.61339844 35.33921875 -15.60179687 36.3034375 -15.58984375 37.296875 C-15.61786865 44.26573406 -16.86779089 50.37671414 -19 57 C-9.27365359 49.27855934 -3.09592036 40.47791805 -1 28 C0.09483546 15.34824002 0.09483546 15.34824002 -2 3 C-6.33052538 3 -8.33596367 3.82506404 -12.1875 5.6875 Z " fill="#DBE9EE" transform="translate(351,184)"/>
<path d="M0 0 C7.37074256 2.11234695 14.26686366 4.30337613 21 8 C21.33 6.68 21.66 5.36 22 4 C22 4.66 22 5.32 22 6 C22.66 6.33 23.32 6.66 24 7 C23.401875 8.11375 22.80375 9.2275 22.1875 10.375 C16.45264912 22.13042386 14.68039611 35.62275338 18.125 48.4375 C20.10639013 53.92221761 23.05376271 58.98472227 26 64 C16.29953966 60.74341689 8.21414591 51.27898152 3.375 42.5 C-2.025063 31.08661764 -2.43315603 19.35296815 -2 7 C-1.34 6.67 -0.68 6.34 0 6 C0.04487549 6.64437012 0.08975098 7.28874023 0.13598633 7.95263672 C0.34986224 10.92772257 0.58108522 13.90122898 0.8125 16.875 C0.88275391 17.88820312 0.95300781 18.90140625 1.02539062 19.9453125 C2.16801743 34.20529497 6.71198795 45.84155989 17 56 C17.66 56.33 18.32 56.66 19 57 C18.72285156 56.31292969 18.44570312 55.62585938 18.16015625 54.91796875 C17.79792969 54.01691406 17.43570313 53.11585938 17.0625 52.1875 C16.70285156 51.29417969 16.34320313 50.40085938 15.97265625 49.48046875 C11.22730253 37.37886387 13.63911011 23.81723287 18 12 C18 11.34 18 10.68 18 10 C12.42234327 7.05966587 7.14673271 4.46987086 1 3 C0.67 3.66 0.34 4.32 0 5 C0 3.35 0 1.7 0 0 Z " fill="#D9E7EC" transform="translate(230,184)"/>
<path d="M0 0 C0.66 0.99 1.32 1.98 2 3 C1.67 3.99 1.34 4.98 1 6 C5.29 6 9.58 6 14 6 C13.35346168 17.20666424 8.53390713 26.80272998 1 35 C0.41605469 35.63808594 -0.16789062 36.27617187 -0.76953125 36.93359375 C-9.13345763 45.12143747 -18.93962791 47.41528287 -30.3125 47.3125 C-33.21268168 47.24882881 -36.10193878 47.13771146 -39 47 C-36.24455342 44.11140568 -33.32009844 42.28611019 -29.875 40.25 C-15.56810596 31.53359829 -5.48225833 21.64838809 -1 5 C-0.64891832 3.3369815 -0.31034705 1.67109952 0 0 Z M0 8 C-0.70125 9.815 -1.4025 11.63 -2.125 13.5 C-4.44491568 19.04564112 -7.03874359 23.49812547 -11 28 C-11.48855469 28.56976563 -11.97710937 29.13953125 -12.48046875 29.7265625 C-16.68952435 34.27857818 -21.59615593 37.65425358 -26.73266602 41.06811523 C-28.16924865 42.02450663 -29.5866527 43.00959423 -31 44 C-31 44.33 -31 44.66 -31 45 C-20.22185894 45.73072143 -10.19174034 43.03885089 -1.92578125 35.90625 C5.61558353 28.44136965 11.2838711 18.74193354 12 8 C8.04 8 4.08 8 0 8 Z " fill="#EAE5DB" transform="translate(355,212)"/>
<path d="M0 0 C0.33 0 0.66 0 1 0 C1.14695313 0.90878906 1.14695313 0.90878906 1.296875 1.8359375 C3.9458605 16.67939076 10.75901602 27.97176597 23 37 C30.63986514 42.21181193 30.63986514 42.21181193 39 46 C39 46.66 39 47.32 39 48 C23.31867426 48.32406873 12.045685 48.0411165 -0.265625 36.9609375 C-7.78817792 29.06512814 -14 18.11314778 -14 7 C-9.71 7 -5.42 7 -1 7 C-0.67 4.69 -0.34 2.38 0 0 Z M-12 9 C-9.86730364 21.79617814 -4.17257904 31.84401151 6 40 C12.99831674 44.40822854 19.05207691 46.15327388 27.3125 46.0625 C28.38113281 46.05347656 29.44976562 46.04445313 30.55078125 46.03515625 C31.76314453 46.01775391 31.76314453 46.01775391 33 46 C29.89020043 43.40850036 26.67641792 41.11584611 23.3125 38.875 C13.2375576 31.80302106 6.89548905 24.2794714 2 13 C1.34 11.68 0.68 10.36 0 9 C-3.96 9 -7.92 9 -12 9 Z " fill="#EAE4D9" transform="translate(225,211)"/>
<path d="M0 0 C6.27 0 12.54 0 19 0 C18.67 1.32 18.34 2.64 18 4 C17.24227295 4.03577148 16.4845459 4.07154297 15.70385742 4.10839844 C12.74916058 4.76776296 12.74916058 4.76776296 11.27075195 7.69628906 C10.51217896 9.46311035 10.51217896 9.46311035 9.73828125 11.265625 C9.3231855 12.21124298 9.3231855 12.21124298 8.89970398 13.17596436 C8.01921061 15.19335346 7.16582008 17.22098913 6.3125 19.25 C5.72764427 20.60101188 5.1410738 21.95128281 4.55273438 23.30078125 C2.29430446 28.5040742 0.08692856 33.72527722 -2 39 C-2.33 38.34 -2.66 37.68 -3 37 C-4.98 37.495 -4.98 37.495 -7 38 C-7 37.34 -7 36.68 -7 36 C-6.34 36 -5.68 36 -5 36 C-4.83129395 35.46415283 -4.66258789 34.92830566 -4.48876953 34.3762207 C-2.59042658 28.49921977 -0.32788403 22.85249407 2.125 17.1875 C2.83867151 15.53633527 3.54971164 13.88403011 4.2578125 12.23046875 C4.5686377 11.51270264 4.87946289 10.79493652 5.19970703 10.05541992 C5.97906157 8.05377688 6.52826754 6.09334961 7 4 C5.02 4 3.04 4 1 4 C0.67 2.68 0.34 1.36 0 0 Z " fill="#2B3342" transform="translate(344,356)"/>
<path d="M0 0 C15.97364428 -0.79536818 29.54593985 2.42840173 42.234375 12.83203125 C45.47119693 15.90166197 47.79853163 18.59461597 49 23 C39.66977399 26.11007534 27.399049 24.95483151 18.6796875 20.6796875 C11.22871642 16.00925373 4.49598891 9.6212495 0 2 C0 1.34 0 0.68 0 0 Z M3 2 C8.35852315 11.37741552 15.53478252 17.35303985 25.8125 20.9375 C32.09764499 22.60270804 38.55307255 22.25081706 45 22 C45 18.29071719 44.27561244 17.79011282 41.75 15.1875 C32.90235623 6.68375758 20.57518971 1.85535781 8.375 1.8125 C6.58287025 1.8598989 4.79083038 1.91692024 3 2 Z " fill="#E9E2D8" transform="translate(230,265)"/>
<path d="M0 0 C0 4 0 4 -1.2578125 5.67578125 C-11.59913854 14.74066747 -24.12843584 20.43265696 -37.9375 20.125 C-38.71673828 20.11597656 -39.49597656 20.10695313 -40.29882812 20.09765625 C-42.19935447 20.07433691 -44.09972008 20.03847586 -46 20 C-46 19.67 -46 19.34 -46 19 C-42.04 18.505 -42.04 18.505 -38 18 C-38 17.34 -38 16.68 -38 16 C-37.27296875 15.91363281 -36.5459375 15.82726562 -35.796875 15.73828125 C-25.61444801 14.31535235 -16.28409968 11.21307476 -8 5 C-12.29 4.67 -16.58 4.34 -21 4 C-21 3.67 -21 3.34 -21 3 C-15.06 2.505 -15.06 2.505 -9 2 C-11.97 1.67 -14.94 1.34 -18 1 C-18 0.67 -18 0.34 -18 0 C-15.93831015 -0.19620767 -13.87559002 -0.38160753 -11.8125 -0.5625 C-10.66394531 -0.66691406 -9.51539063 -0.77132813 -8.33203125 -0.87890625 C-5.31368801 -0.98859985 -2.91076064 -0.74002389 0 0 Z " fill="#303C4D" transform="translate(281,289)"/>
<path d="M0 0 C2.69136979 1.64730392 3.55567751 3.21868327 4.8125 6.109375 C5.04988786 8.83175921 4.95194193 11.367017 4.8125 14.109375 C3.8225 14.109375 2.8325 14.109375 1.8125 14.109375 C1.1525 14.769375 0.4925 15.429375 -0.1875 16.109375 C-0.1875 13.799375 -0.1875 11.489375 -0.1875 9.109375 C-3.6456262 7.3803119 -7.47049132 8.46851143 -11.1875 9.109375 C-14.10259282 10.05414054 -14.10259282 10.05414054 -16.1875 11.109375 C-20.1875 5.359375 -20.1875 5.359375 -20.1875 3.109375 C-13.80890759 -0.67053161 -7.254412 -2.95358203 0 0 Z " fill="#1B2231" transform="translate(284.1875,197.890625)"/>
<path d="M0 0 C1.25425781 0.00902344 2.50851562 0.01804687 3.80078125 0.02734375 C4.75339844 0.03894531 5.70601563 0.05054688 6.6875 0.0625 C5.23564543 7.65941345 -1.20665046 13.72515234 -7.3125 18.0625 C-17.4621489 24.27073594 -27.73042476 24.61648135 -39.3125 24.0625 C-40.3025 23.7325 -41.2925 23.4025 -42.3125 23.0625 C-38.18046798 13.55021795 -28.18557785 6.84888291 -18.85546875 3.06640625 C-12.48755987 0.85928692 -6.76976232 -0.06326881 0 0 Z M-39.3125 20.0625 C-39.3125 20.7225 -39.3125 21.3825 -39.3125 22.0625 C-26.54070097 22.75080055 -15.26055583 22.29358933 -4.875 13.75 C-1.21289183 10.22006984 1.81601537 6.25008175 4.6875 2.0625 C-12.31966335 0.61302585 -28.15620135 6.98270159 -39.3125 20.0625 Z " fill="#EAE3D9" transform="translate(343.3125,264.9375)"/>
<path d="M0 0 C0.48210937 0.42152344 0.96421875 0.84304687 1.4609375 1.27734375 C2.09257812 1.82519531 2.72421875 2.37304688 3.375 2.9375 C4.00148438 3.48277344 4.62796875 4.02804688 5.2734375 4.58984375 C8.81645226 7.483573 11.47505567 7.35912257 16 7 C19.10790799 5.87030011 22.05324933 4.49676225 25 3 C26.32 5.31 27.64 7.62 29 10 C22.42559013 13.97924808 17.77702483 15.04017707 10 14 C5.35898445 11.77376285 1.87675975 8.86842628 0 4 C0 2.68 0 1.36 0 0 Z " fill="#191F2E" transform="translate(282,187)"/>
<path d="M0 0 C-0.40383283 5.34309406 -1.96323388 7.56337395 -5.76953125 11.2578125 C-6.2469426 11.72814911 -6.72435394 12.19848572 -7.2162323 12.68307495 C-8.7369251 14.17593839 -10.27405186 15.65046293 -11.8125 17.125 C-12.83513147 18.1225233 -13.8566282 19.1212113 -14.87695312 20.12109375 C-16.75856073 21.96201867 -18.64738848 23.79415737 -20.54223633 25.62158203 C-23.00263716 27.93592334 -23.00263716 27.93592334 -25.07299805 30.37451172 C-25.70890869 30.91092285 -26.34481934 31.44733398 -27 32 C-29.25 31.75 -29.25 31.75 -31 31 C-26.25291823 24.19039305 -20.70307831 18.39466665 -14.83056641 12.56982422 C-13.23226796 10.98238848 -11.64511673 9.38435191 -10.05859375 7.78515625 C-9.04491268 6.7727944 -8.03061267 5.76105185 -7.015625 4.75 C-6.10071289 3.83734375 -5.18580078 2.9246875 -4.24316406 1.984375 C-2 0 -2 0 0 0 Z " fill="#253040" transform="translate(291,150)"/>
<path d="M0 0 C1.32 0 2.64 0 4 0 C2.64019522 3.76302412 0.89465459 6.77695197 -1.375 10.0625 C-7.4829162 19.52850291 -9.67842073 30.09561251 -12 41 C-12.66 40.67 -13.32 40.34 -14 40 C-15.19600404 25.72768517 -10.4904496 13.35624367 -2 2 C-1.34 1.34 -0.68 0.68 0 0 Z " fill="#1E2838" transform="translate(260,181)"/>
<path d="M0 0 C0.46148437 0.36351562 0.92296875 0.72703125 1.3984375 1.1015625 C14.57138005 11.25462099 25.33394067 15.30357965 42 16 C38.16968294 20.30910669 34.32061945 22.79670551 29 25 C28.12988281 25.36480469 27.25976562 25.72960937 26.36328125 26.10546875 C21.89206407 27.2946775 17.72670581 27.21509364 13.125 27.125 C12.24585938 27.11597656 11.36671875 27.10695313 10.4609375 27.09765625 C8.3071729 27.07424577 6.15354986 27.0383801 4 27 C4 26.34 4 25.68 4 25 C5.64935547 24.96132813 5.64935547 24.96132813 7.33203125 24.921875 C17.06755172 24.58673762 25.16463097 23.41768451 34 19 C32.94941406 18.76925781 31.89882813 18.53851563 30.81640625 18.30078125 C18.39225354 15.46385161 8.92605101 11.55910427 0 2 C0 1.34 0 0.68 0 0 Z " fill="#D5E7EE" transform="translate(232,277)"/>
<path d="M0 0 C5.89164153 0.52283441 10.49812944 2.2728485 15.8125 4.8125 C16.9562207 5.32780273 16.9562207 5.32780273 18.12304688 5.85351562 C18.85201172 6.19705078 19.58097656 6.54058594 20.33203125 6.89453125 C21.31780151 7.35629761 21.31780151 7.35629761 22.32348633 7.82739258 C24.38873227 9.27189181 25.05050725 10.69829966 26 13 C-4.54764041 35.61484468 -4.54764041 35.61484468 -15 35 C-15 34.34 -15 33.68 -15 33 C-14.40574219 32.85304688 -13.81148438 32.70609375 -13.19921875 32.5546875 C0.52153398 28.84176219 10.95016351 20.56812917 22 12 C18.34444324 8.78857631 15.00614664 7.01611293 10.4375 5.375 C6.84885333 4.07230051 3.37205864 2.79733199 0 1 C0 0.67 0 0.34 0 0 Z " fill="#E0EFF3" transform="translate(362,268)"/>
<path d="M0 0 C2.3125 1.625 2.3125 1.625 4 4 C4.45319325 7.17235276 4.52990283 9.06487736 2.9375 11.875 C-0.14071911 13.66235303 -2.52906068 13.43386742 -6 13 C-8 11.375 -8 11.375 -9 9 C-8.87046154 5.82630784 -8.51878767 3.77818151 -6.75 1.125 C-4.28153087 -0.46187301 -2.88219726 -0.49208246 0 0 Z " fill="#1A2131" transform="translate(161,331)"/>
<path d="M0 0 C3.56632138 0.28530571 3.874148 0.70555861 6.125 3.25 C8.72415538 4.44027984 8.72415538 4.44027984 11.125 5.25 C10.8125 7.125 10.8125 7.125 10.125 9.25 C7.02719052 11.31520632 6.1709519 11.54477024 2.625 11.5625 C1.46484375 11.58763672 1.46484375 11.58763672 0.28125 11.61328125 C-1.875 11.25 -1.875 11.25 -3.671875 9.95703125 C-4.875 8.25 -4.875 8.25 -4.625 4.625 C-3.66810345 0.31896552 -3.66810345 0.31896552 0 0 Z " fill="#1A2333" transform="translate(315.875,417.75)"/>
<path d="M0 0 C6.27 0 12.54 0 19 0 C19 0.99 19 1.98 19 3 C18.113125 3.103125 17.22625 3.20625 16.3125 3.3125 C11.68297419 5.67093768 11.05955701 8.81025882 9.37109375 13.56640625 C8 16 8 16 5.34765625 16.83984375 C4.57292969 16.89269531 3.79820312 16.94554687 3 17 C3.20496094 16.39671875 3.40992188 15.7934375 3.62109375 15.171875 C4.02521484 13.97304688 4.02521484 13.97304688 4.4375 12.75 C4.70433594 11.96109375 4.97117188 11.1721875 5.24609375 10.359375 C5.91954708 8.25178012 6.49150595 6.15246027 7 4 C5.02 4 3.04 4 1 4 C0.67 2.68 0.34 1.36 0 0 Z " fill="#293242" transform="translate(219,356)"/>
<path d="M0 0 C10.00810347 0.42587674 16.44377212 7.09866677 23.15234375 13.94921875 C25 16 25 16 27 19 C26.625 21.6875 26.625 21.6875 26 24 C23.65105345 21.72445803 21.39858908 19.49447608 19.34375 16.9453125 C14.41666638 10.91172281 9.26802452 7.40076379 2.5625 3.62890625 C1.2940625 2.82259766 1.2940625 2.82259766 0 2 C0 1.34 0 0.68 0 0 Z " fill="#202A39" transform="translate(257,267)"/>
<path d="M0 0 C1.32 0 2.64 0 4 0 C2.85274602 7.90330518 -0.14037755 12.74721264 -5 19 C-5.680625 19.94875 -6.36125 20.8975 -7.0625 21.875 C-9.42163374 24.462437 -12.0258371 26.17494549 -15 28 C-15.66 26.68 -16.32 25.36 -17 24 C-16.50371094 23.62230469 -16.00742187 23.24460938 -15.49609375 22.85546875 C-7.92947322 16.72463959 -2.82676895 9.34480415 0 0 Z " fill="#1C2730" transform="translate(349,219)"/>
<path d="M0 0 C3.40170417 1.30509432 6.59473194 2.79494681 9.8125 4.5 C17.86008381 8.54157007 26.15547172 9.61435724 35 11 C35 11.33 35 11.66 35 12 C22.03366003 12.61034027 10.87507307 12.77589625 0.25 4.1875 C-0.4925 3.465625 -1.235 2.74375 -2 2 C-1.34 1.34 -0.68 0.68 0 0 Z " fill="#192A39" transform="translate(240,280)"/>
<path d="M0 0 C2.54975953 4.4917386 2.34470522 8.44144684 2.3125 13.5 C2.30758545 14.3976709 2.3026709 15.2953418 2.29760742 16.22021484 C2.05992598 29.74733636 -1.68756914 41.53668867 -10.66796875 51.8203125 C-12 53 -12 53 -14 53 C-12.69550399 50.16225749 -11.23127012 48.03325198 -9.1875 45.6875 C0.75284653 32.26315947 -0.09246466 15.95649981 0 0 Z " fill="#DCECF1" transform="translate(350,186)"/>
<path d="M0 0 C9.23724847 0.83974986 16.82665639 3.69041883 25 8 C25 9.32 25 10.64 25 12 C21.29621941 10.83038508 17.75254887 9.46696714 14.1875 7.9375 C9.39819806 5.98253456 5.14837281 5.33215308 0 5 C0 3.35 0 1.7 0 0 Z " fill="#232D3D" transform="translate(226,180)"/>
<path d="M0 0 C3.93924358 0.24851724 7.87573251 0.52761711 11.8125 0.8125 C12.93205078 0.88275391 14.05160156 0.95300781 15.20507812 1.02539062 C16.27822266 1.10595703 17.35136719 1.18652344 18.45703125 1.26953125 C19.9416687 1.37164917 19.9416687 1.37164917 21.45629883 1.47583008 C24.27733043 2.05714833 25.23687791 2.77716016 27 5 C24.72700219 7.27299781 19.42388636 6.23279895 16.375 6.25 C15.03888672 6.2809375 15.03888672 6.2809375 13.67578125 6.3125 C7.98666272 6.34601469 4.05770552 5.63277821 -1 3 C-0.67 2.01 -0.34 1.02 0 0 Z " fill="#1F2C3A" transform="translate(274,258)"/>
<path d="M0 0 C5.06623768 4.23816537 9.80038069 8.67408963 14.4375 13.375 C15.07365234 14.01566406 15.70980469 14.65632812 16.36523438 15.31640625 C17.91250332 16.87530879 19.45736492 18.43651416 21 20 C20.34 21.32 19.68 22.64 19 24 C16.11749017 21.24099916 13.25160179 18.46589896 10.40014648 15.67480469 C9.42769895 14.72751645 8.45081335 13.78476221 7.46948242 12.84667969 C6.06053683 11.49831092 4.66865627 10.13218107 3.27734375 8.765625 C2.43421631 7.94868164 1.59108887 7.13173828 0.72241211 6.29003906 C-1 4 -1 4 -0.76733398 1.70214844 C-0.51411377 1.14043945 -0.26089355 0.57873047 0 0 Z " fill="#1A2534" transform="translate(291,151)"/>
<path d="M0 0 C2.549746 2.35774705 4.34597007 4.91641709 6.25 7.8125 C9.69382107 12.81371785 13.49372066 17.24686033 19 20 C19 21.32 19 22.64 19 24 C12.1321664 22.0684218 5.78815838 15.89269082 2 10 C0.84361945 7.04146795 -0.12232126 4.05192834 -1 1 C-0.67 0.67 -0.34 0.34 0 0 Z " fill="#1D2A38" transform="translate(214,233)"/>
<path d="M0 0 C0 9.24 0 18.48 0 28 C-1.32 27.67 -2.64 27.34 -4 27 C-4.02907084 23.41668375 -4.04682263 19.83339792 -4.0625 16.25 C-4.07087891 15.23421875 -4.07925781 14.2184375 -4.08789062 13.171875 C-4.09111328 12.1921875 -4.09433594 11.2125 -4.09765625 10.203125 C-4.10289307 9.30239258 -4.10812988 8.40166016 -4.11352539 7.47363281 C-4.00625023 5.13618784 -3.78482046 3.20306998 -3 1 C-1 0 -1 0 0 0 Z " fill="#151F2F" transform="translate(229,184)"/>
<path d="M0 0 C0.33 0 0.66 0 1 0 C1.95083499 9.23340971 2.73254051 17.22747541 -1 26 C-0.01 25.34 0.98 24.68 2 24 C2 24.99 2 25.98 2 27 C0.1015625 28.82421875 0.1015625 28.82421875 -2.375 30.6875 C-3.18710937 31.31011719 -3.99921875 31.93273437 -4.8359375 32.57421875 C-7 34 -7 34 -9 34 C-8.72285156 33.4534375 -8.44570313 32.906875 -8.16015625 32.34375 C-6.87525658 29.7479931 -5.64827004 27.13116593 -4.4375 24.5 C-3.78587891 23.09234375 -3.78587891 23.09234375 -3.12109375 21.65625 C-1.10634687 16.88263369 -0.73418321 12.39575135 -0.4375 7.25 C-0.39431641 6.55261719 -0.35113281 5.85523438 -0.30664062 5.13671875 C-0.20110404 3.42468078 -0.1001009 1.71236439 0 0 Z " fill="#D2DEE4" transform="translate(334,214)"/>
<path d="M0 0 C0.33 1.32 0.66 2.64 1 4 C-7.59509285 7.75058597 -15.80621145 7.28499689 -25 7 C-25 6.67 -25 6.34 -25 6 C-22.36 5.67 -19.72 5.34 -17 5 C-17 4.34 -17 3.68 -17 3 C-16.15695313 2.86722656 -15.31390625 2.73445313 -14.4453125 2.59765625 C-13.34960938 2.42105469 -12.25390625 2.24445313 -11.125 2.0625 C-10.03445312 1.88847656 -8.94390625 1.71445312 -7.8203125 1.53515625 C-4.8100856 0.96396361 -3.09556571 0 0 0 Z " fill="#333E4C" transform="translate(260,302)"/>
<path d="M0 0 C0.33 0 0.66 0 1 0 C1.04487549 0.64437012 1.08975098 1.28874023 1.13598633 1.95263672 C1.34986224 4.92772257 1.58108522 7.90122898 1.8125 10.875 C1.88275391 11.88820312 1.95300781 12.90140625 2.02539062 13.9453125 C2.7074555 22.45748209 4.60106455 30.15630281 8 38 C7.01 38 6.02 38 5 38 C-0.44378119 25.81755764 -1.69087007 14.20686502 -1 1 C-0.67 0.67 -0.34 0.34 0 0 Z " fill="#CADBE1" transform="translate(229,190)"/>
<path d="M0 0 C0.33 0.66 0.66 1.32 1 2 C-0.04800781 2.40992188 -1.09601563 2.81984375 -2.17578125 3.2421875 C-3.55476009 3.78627439 -4.93366236 4.33055538 -6.3125 4.875 C-7.00279297 5.14441406 -7.69308594 5.41382813 -8.40429688 5.69140625 C-11.51013099 6.92173667 -14.20982695 8.13988463 -17 10 C-17.99 10 -18.98 10 -20 10 C-20 8.68 -20 7.36 -20 6 C-17.98757061 4.98319357 -15.9645868 3.98726211 -13.9375 3 C-12.24947266 2.1646875 -12.24947266 2.1646875 -10.52734375 1.3125 C-6.76473667 -0.08753984 -3.97932691 -0.2433219 0 0 Z " fill="#1F2838" transform="translate(349,182)"/>
<path d="M0 0 C6.4188547 1.73624758 12.13784836 3.85180745 18 7 C17.01 7.495 17.01 7.495 16 8 C15.67 8.99 15.34 9.98 15 11 C12.89439981 10.04482045 10.79056654 9.08574515 8.6875 8.125 C7.51574219 7.59132813 6.34398437 7.05765625 5.13671875 6.5078125 C2 5 2 5 -1 3 C-0.67 2.01 -0.34 1.02 0 0 Z " fill="#273243" transform="translate(367,265)"/>
<path d="M0 0 C4.45885926 0.10944715 8.91684156 0.24017666 13.375 0.375 C14.64601563 0.4059375 15.91703125 0.436875 17.2265625 0.46875 C18.43828125 0.50742187 19.65 0.54609375 20.8984375 0.5859375 C22.57945557 0.63306885 22.57945557 0.63306885 24.29443359 0.68115234 C27 1 27 1 29 3 C18.90043148 4.87477021 9.64384139 4.65725813 0 1 C0 0.67 0 0.34 0 0 Z " fill="#C8D7DE" transform="translate(320,301)"/>
<path d="M0 0 C0.46148437 0.36351562 0.92296875 0.72703125 1.3984375 1.1015625 C13.35817776 10.31954413 23.83098113 15.16368527 39 16 C39 16.33 39 16.66 39 17 C25.13362479 17.53256349 14.8805872 15.46816776 4.03515625 6.34765625 C2.375 4.75 2.375 4.75 0 2 C0 1.34 0 0.68 0 0 Z " fill="#DFF2F6" transform="translate(232,277)"/>
<path d="M0 0 C0.99 0.33 1.98 0.66 3 1 C3.0270203 3.75006608 3.04684883 6.49986546 3.0625 9.25 C3.07087891 10.02730469 3.07925781 10.80460938 3.08789062 11.60546875 C3.09111328 12.35957031 3.09433594 13.11367187 3.09765625 13.890625 C3.10289307 14.58188477 3.10812988 15.27314453 3.11352539 15.98535156 C2.99437971 18.09973898 2.57618237 19.96641515 2 22 C1.01 21.67 0.02 21.34 -1 21 C-0.67 14.07 -0.34 7.14 0 0 Z " fill="#141E2E" transform="translate(331,211)"/>
<path d="M0 0 C0 0.66 0 1.32 0 2 C0.99 2.33 1.98 2.66 3 3 C2.16855469 3.33773438 1.33710937 3.67546875 0.48046875 4.0234375 C-0.60621094 4.46945312 -1.69289063 4.91546875 -2.8125 5.375 C-4.43091797 6.03628906 -4.43091797 6.03628906 -6.08203125 6.7109375 C-9.10730112 7.9479119 -9.10730112 7.9479119 -12 10 C-12.103125 9.360625 -12.20625 8.72125 -12.3125 8.0625 C-12.539375 7.381875 -12.76625 6.70125 -13 6 C-13.99 5.67 -14.98 5.34 -16 5 C-13.70967689 4.16280617 -11.41789043 3.3301071 -9.125 2.5 C-8.47402344 2.26152344 -7.82304688 2.02304687 -7.15234375 1.77734375 C-2.2265625 0 -2.2265625 0 0 0 Z " fill="#253040" transform="translate(529,377)"/>
<path d="M0 0 C11.52164009 -0.18451025 11.52164009 -0.18451025 17 1 C16.67 1.99 16.34 2.98 16 4 C15.01 4 14.02 4 13 4 C12.67 4.99 12.34 5.98 12 7 C12 6.01 12 5.02 12 4 C7.71 4 3.42 4 -1 4 C-0.67 2.68 -0.34 1.36 0 0 Z " fill="#2B313D" transform="translate(357,214)"/>
<path d="M0 0 C3.36720387 1.39332574 4.9859524 2.9789286 7 6 C5.25 8.0625 5.25 8.0625 3 10 C0.28535198 9.91773794 -0.73165881 9.23959034 -2.75 7.4375 C-3.1625 6.963125 -3.575 6.48875 -4 6 C-2.84826645 3.53199953 -1.95216435 1.95216435 0 0 Z " fill="#1A2130" transform="translate(292,182)"/>
<path d="M0 0 C1.63001953 0.01353516 1.63001953 0.01353516 3.29296875 0.02734375 C4.12441406 0.03894531 4.95585937 0.05054688 5.8125 0.0625 C6.1425 1.7125 6.4725 3.3625 6.8125 5.0625 C5.8225 5.5575 5.8225 5.5575 4.8125 6.0625 C4.1525 5.7325 3.4925 5.4025 2.8125 5.0625 C-2.79453213 4.84872279 -2.79453213 4.84872279 -8.1875 6.0625 C-7.8575 4.7425 -7.5275 3.4225 -7.1875 2.0625 C-7.8475 1.7325 -8.5075 1.4025 -9.1875 1.0625 C-5.90230525 -0.03256492 -3.45086585 -0.03710608 0 0 Z " fill="#2B3343" transform="translate(271.1875,354.9375)"/>
<path d="M0 0 C0.33 0.66 0.66 1.32 1 2 C1.66 2.33 2.32 2.66 3 3 C-0.85316664 6.37152081 -5.0901193 9.40892534 -10 11 C-12.24609375 10.60546875 -12.24609375 10.60546875 -14 10 C-11.16667533 6.95483798 -8.34499689 4.83131399 -4.75 2.75 C-3.85796875 2.22921875 -2.9659375 1.7084375 -2.046875 1.171875 C-1.03367187 0.59179688 -1.03367187 0.59179688 0 0 Z " fill="#212E3D" transform="translate(273,294)"/>
<path d="M0 0 C0 0.99 0 1.98 0 3 C-2.1171875 4.60546875 -2.1171875 4.60546875 -4.875 6.1875 C-5.77992188 6.71730469 -6.68484375 7.24710937 -7.6171875 7.79296875 C-10 9 -10 9 -12 9 C-12 9.66 -12 10.32 -12 11 C-12.66 11 -13.32 11 -14 11 C-14.33 9.68 -14.66 8.36 -15 7 C-13.54261898 6.01941648 -12.08406325 5.04057868 -10.625 4.0625 C-9.81289062 3.51722656 -9.00078125 2.97195313 -8.1640625 2.41015625 C-4.88217029 0.27159472 -4.15250434 0 0 0 Z " fill="#192536" transform="translate(204,270)"/>
<path d="M0 0 C0.33 0.66 0.66 1.32 1 2 C-4.24955168 4.15758273 -8.80810284 4.24042211 -14.375 4.125 C-15.20644531 4.11597656 -16.03789062 4.10695313 -16.89453125 4.09765625 C-18.92981337 4.0742622 -20.96494564 4.03839725 -23 4 C-20.17559593 1.17559593 -16.98149113 0.99832386 -13.1875 0.3125 C-12.47529297 0.17005859 -11.76308594 0.02761719 -11.02929688 -0.11914062 C-7.10813098 -0.84823808 -3.81702562 -1.31596502 0 0 Z " fill="#233041" transform="translate(329,288)"/>
<path d="M0 0 C-1 2 -1 2 -3.4453125 3.1171875 C-7.99732363 4.24768697 -12.20802081 4.21637158 -16.875 4.125 C-17.75414062 4.11597656 -18.63328125 4.10695313 -19.5390625 4.09765625 C-21.6928271 4.07424577 -23.84645014 4.0383801 -26 4 C-26 3.67 -26 3.34 -26 3 C-22.04 3 -18.08 3 -14 3 C-14 2.34 -14 1.68 -14 1 C-14.99 0.67 -15.98 0.34 -17 0 C-15.10507254 -0.19644384 -13.20899097 -0.38177288 -11.3125 -0.5625 C-9.72888672 -0.71912109 -9.72888672 -0.71912109 -8.11328125 -0.87890625 C-5.18573914 -0.99277552 -2.82868856 -0.70848415 0 0 Z " fill="#242D3B" transform="translate(478,426)"/>
<path d="M0 0 C2.0839403 0.11443603 4.16716493 0.24195547 6.25 0.375 C7.41015625 0.44460938 8.5703125 0.51421875 9.765625 0.5859375 C12.73478735 0.96604766 14.56619841 1.29633889 17 3 C17.33 3.99 17.66 4.98 18 6 C12.72684667 5.5547115 7.98229776 4.91626837 3 3 C2.34 3.66 1.68 4.32 1 5 C1 4.34 1 3.68 1 3 C0.34 2.67 -0.32 2.34 -1 2 C-0.67 1.34 -0.34 0.68 0 0 Z " fill="#1B2434" transform="translate(350,262)"/>
<path d="M0 0 C0.99 0.33 1.98 0.66 3 1 C3.08069658 3.95887459 3.14034665 6.9155659 3.1875 9.875 C3.22520508 11.13763672 3.22520508 11.13763672 3.26367188 12.42578125 C3.27333984 13.23144531 3.28300781 14.03710938 3.29296875 14.8671875 C3.3086792 15.61081543 3.32438965 16.35444336 3.34057617 17.12060547 C3.17199097 18.05090576 3.17199097 18.05090576 3 19 C2.01 19.66 1.02 20.32 0 21 C0 14.07 0 7.14 0 0 Z " fill="#192535" transform="translate(352,192)"/>
<path d="M0 0 C2.01953125 2.40625 2.01953125 2.40625 3.8125 5.5 C4.41707031 6.5209375 5.02164063 7.541875 5.64453125 8.59375 C6.31548828 9.78484375 6.31548828 9.78484375 7 11 C6.01 11 5.02 11 4 11 C0 5.74285714 0 5.74285714 0 3 C-0.91523438 3.16757812 -1.83046875 3.33515625 -2.7734375 3.5078125 C-4.55621094 3.81332031 -4.55621094 3.81332031 -6.375 4.125 C-8.15003906 4.43824219 -8.15003906 4.43824219 -9.9609375 4.7578125 C-10.96382812 4.83773438 -11.96671875 4.91765625 -13 5 C-13.66 4.34 -14.32 3.68 -15 3 C-13.44033782 2.491217 -11.87710759 1.99336531 -10.3125 1.5 C-9.44238281 1.2215625 -8.57226562 0.943125 -7.67578125 0.65625 C-2.87134866 -0.52206339 -2.87134866 -0.52206339 0 0 Z " fill="#D0E0E6" transform="translate(226,266)"/>
<path d="M0 0 C0.33 0 0.66 0 1 0 C1.05850924 3.68743234 1.09376673 7.3747437 1.125 11.0625 C1.15013672 12.62000977 1.15013672 12.62000977 1.17578125 14.20898438 C1.21183286 19.88711284 0.92971166 24.64391054 -1 30 C-1.99 30 -2.98 30 -4 30 C-4.33 30.66 -4.66 31.32 -5 32 C-4.67 28.37 -4.34 24.74 -4 21 C-3.34 21.66 -2.68 22.32 -2 23 C-0.34920558 21.34920558 -0.77450553 19.36263821 -0.68359375 17.08984375 C-0.64169922 16.10048828 -0.59980469 15.11113281 -0.55664062 14.09179688 C-0.49766602 12.53041992 -0.49766602 12.53041992 -0.4375 10.9375 C-0.37272461 9.37032227 -0.37272461 9.37032227 -0.30664062 7.77148438 C-0.20018775 5.18113116 -0.0981724 2.59067814 0 0 Z " fill="#3D4551" transform="translate(355,189)"/>
<path d="M0 0 C0.99 0.33 1.98 0.66 3 1 C-4.25100065 7.11098958 -12.40950345 11.63113475 -22 12 C-22 11.34 -22 10.68 -22 10 C-21.40574219 9.85304688 -20.81148438 9.70609375 -20.19921875 9.5546875 C-13.41078152 7.71769204 -5.09620303 5.09620303 0 0 Z " fill="#D7E8ED" transform="translate(369,291)"/>
<path d="M0 0 C2.59556133 2.00229017 4.96302735 3.95985827 7.1875 6.375 C10.45669047 9.42624444 13.91883898 11.46662664 17.79296875 13.66796875 C20 15 20 15 22 17 C12.89527333 16.62063639 7.51524915 10.69672629 1.25 4.61328125 C0 3 0 3 0 0 Z " fill="#E8E2D6" transform="translate(233,269)"/>
<path d="M0 0 C0.97582031 0.10183594 1.95164062 0.20367187 2.95703125 0.30859375 C3.69308594 0.39238281 4.42914063 0.47617187 5.1875 0.5625 C5.1875 0.8925 5.1875 1.2225 5.1875 1.5625 C3.73730469 1.72685547 3.73730469 1.72685547 2.2578125 1.89453125 C-4.68908977 2.74054014 -11.14793371 3.66401384 -17.76171875 6.07421875 C-20.13066636 6.6382539 -21.52881234 6.33060262 -23.8125 5.5625 C-21.75200145 4.74493762 -19.68901147 3.93365266 -17.625 3.125 C-16.47644531 2.67253906 -15.32789063 2.22007812 -14.14453125 1.75390625 C-9.09939078 -0.05004198 -5.33124489 -0.5780868 0 0 Z " fill="#D8D1C5" transform="translate(341.8125,265.4375)"/>
<path d="M0 0 C0.33 0 0.66 0 1 0 C1.22278071 2.56197812 1.42862563 5.12347556 1.625 7.6875 C1.72167969 8.7693457 1.72167969 8.7693457 1.8203125 9.87304688 C2.13102342 14.12590254 1.97020088 17.18743571 0 21 C-2.18994248 17.71508627 -2.35277339 16.16904361 -2.625 12.3125 C-2.69976562 11.31863281 -2.77453125 10.32476562 -2.8515625 9.30078125 C-2.90054688 8.54152344 -2.94953125 7.78226563 -3 7 C-2.34 6.67 -1.68 6.34 -1 6 C-0.34227572 2.97065509 -0.34227572 2.97065509 0 0 Z " fill="#2B3544" transform="translate(249,214)"/>
<path d="M0 0 C2.00750469 0.28466832 4.00669547 0.62872093 6 1 C8.56214638 1.04256941 11.12532468 1.04079085 13.6875 1 C20.66855524 0.88951841 20.66855524 0.88951841 24 2 C24 2.66 24 3.32 24 4 C6.14350797 4.3690205 6.14350797 4.3690205 -2 2 C-1.34 1.34 -0.68 0.68 0 0 Z " fill="#D9D0C2" transform="translate(240,255)"/>
<path d="M0 0 C3.2578125 0.0234375 3.2578125 0.0234375 7.125 0.375 C8.40632812 0.48585938 9.68765625 0.59671875 11.0078125 0.7109375 C11.99523437 0.80632812 12.98265625 0.90171875 14 1 C14.33 1.99 14.66 2.98 15 4 C12.91695462 4.05418326 10.83350232 4.09287551 8.75 4.125 C7.00976562 4.15980469 7.00976562 4.15980469 5.234375 4.1953125 C2.17213954 4.0103949 0.55797249 3.60823023 -2 2 C-1.34 1.34 -0.68 0.68 0 0 Z " fill="#1A2533" transform="translate(229,304)"/>
<path d="M0 0 C4.95 0 9.9 0 15 0 C12 2 12 2 8 3 C12.455 4.98 12.455 4.98 17 7 C17 7.33 17 7.66 17 8 C10.27137118 7.70745092 5.44708838 4.85789761 0 1 C0 0.67 0 0.34 0 0 Z " fill="#E0F0F5" transform="translate(306,293)"/>
<path d="M0 0 C0.99 0 1.98 0 3 0 C3 0.66 3 1.32 3 2 C5.45873768 1.85941524 7.91685175 1.71277001 10.375 1.5625 C11.07367188 1.52318359 11.77234375 1.48386719 12.4921875 1.44335938 C16.37360492 1.25719866 16.37360492 1.25719866 20 0 C22.3329866 -0.04022391 24.66706666 -0.04320247 27 0 C27 0.99 27 1.98 27 3 C18.09 3 9.18 3 0 3 C0 2.01 0 1.02 0 0 Z " fill="#27303A" transform="translate(95,403)"/>
<path d="M0 0 C2.21484375 1.2578125 2.21484375 1.2578125 4.9375 3.125 C10.39659657 6.72829258 15.9783961 9.47255697 22 12 C22 12.33 22 12.66 22 13 C16.36365824 12.52307877 12.56389982 11.03209535 7.75 8.125 C7.13898438 7.77308594 6.52796875 7.42117188 5.8984375 7.05859375 C2.92558679 5.31253078 0.27054446 3.6160621 -2 1 C-1.34 0.67 -0.68 0.34 0 0 Z " fill="#D6E5EB" transform="translate(208,289)"/>
<path d="M0 0 C0 0.66 0 1.32 0 2 C0.66 2.66 1.32 3.32 2 4 C0.14375 3.9690625 0.14375 3.9690625 -1.75 3.9375 C-4.68091987 3.9323217 -7.18224799 4.13299938 -10 5 C-10.66 5 -11.32 5 -12 5 C-12 4.34 -12 3.68 -12 3 C-13.65 3 -15.3 3 -17 3 C-11.41161911 -0.10465605 -6.24532781 -0.10585301 0 0 Z " fill="#37414F" transform="translate(235,261)"/>
<path d="M0 0 C1.19921875 1.55859375 1.19921875 1.55859375 2 4 C1.06107269 6.55447842 0.09800542 8.69549863 -1.1875 11.0625 C-1.50525391 11.68705078 -1.82300781 12.31160156 -2.15039062 12.95507812 C-3.76644896 16.05169706 -5.31473648 18.73041195 -8 21 C-8.99 20.67 -9.98 20.34 -11 20 C-10.54109375 19.47792969 -10.0821875 18.95585937 -9.609375 18.41796875 C-4.80929581 12.65989057 -2.15446646 7.15925189 0 0 Z " fill="#E3DDD2" transform="translate(353,219)"/>
<path d="M0 0 C-0.33 1.98 -0.66 3.96 -1 6 C-1.33 5.01 -1.66 4.02 -2 3 C-7.8353277 5.04547964 -13.55273977 7.05553501 -19 10 C-19 9.01 -19 8.02 -19 7 C-5.48091603 0 -5.48091603 0 0 0 Z " fill="#C9DCE4" transform="translate(351,184)"/>
<path d="M0 0 C0.93779297 0.14179688 1.87558594 0.28359375 2.84179688 0.4296875 C4.30649414 0.66945313 4.30649414 0.66945313 5.80078125 0.9140625 C7.28288086 1.14222656 7.28288086 1.14222656 8.79492188 1.375 C11.23624225 1.75240218 13.67529123 2.14080364 16.11328125 2.5390625 C16.11328125 2.8690625 16.11328125 3.1990625 16.11328125 3.5390625 C13.23802456 3.59331263 10.36380479 3.63285527 7.48828125 3.6640625 C6.68003906 3.68082031 5.87179687 3.69757813 5.0390625 3.71484375 C0.3123431 3.75327236 -3.44059577 3.36643344 -7.88671875 1.5390625 C-4.44456558 -0.75570628 -3.89738329 -0.61413312 0 0 Z " fill="#DDD7CD" transform="translate(259.88671875,285.4609375)"/>
<path d="M0 0 C0.9075 0.804375 1.815 1.60875 2.75 2.4375 C9.40509521 8.14186732 16.39965905 13.61518791 24 18 C23.01 18.33 22.02 18.66 21 19 C13.01998096 14.90215239 5.69515697 8.93198399 0 2 C0 1.34 0 0.68 0 0 Z " fill="#F3EFE4" transform="translate(235,237)"/>
<path d="M0 0 C-2.274694 2.55263088 -4.43202693 3.84144815 -7.5625 5.1875 C-8.34753906 5.53167969 -9.13257813 5.87585938 -9.94140625 6.23046875 C-12 7 -12 7 -14 7 C-13.4375 4.6875 -13.4375 4.6875 -12 2 C-7.6904121 -0.43938938 -4.78829115 -1.59609705 0 0 Z " fill="#222A39" transform="translate(367,299)"/>
<path d="M0 0 C0.66 0.33 1.32 0.66 2 1 C1.9375 3.1875 1.9375 3.1875 1 6 C-1.1717219 7.93157957 -3.52601047 9.48201687 -6 11 C-6.66 9.68 -7.32 8.36 -8 7 C-5.36 4.69 -2.72 2.38 0 0 Z " fill="#293239" transform="translate(340,236)"/>
<path d="M0 0 C0.33 0.66 0.66 1.32 1 2 C1.66 2.33 2.32 2.66 3 3 C2.34 3 1.68 3 1 3 C0.7525 3.70125 0.505 4.4025 0.25 5.125 C-1.16088026 8.37002459 -2.97895398 11.10316737 -5 14 C-6.1171875 12.265625 -6.1171875 12.265625 -7 10 C-6.3203125 7.859375 -6.3203125 7.859375 -5.125 5.75 C-4.73570312 5.04359375 -4.34640625 4.3371875 -3.9453125 3.609375 C-3.63335937 3.07828125 -3.32140625 2.5471875 -3 2 C-2.34 2 -1.68 2 -1 2 C-0.67 1.34 -0.34 0.68 0 0 Z " fill="#2B3342" transform="translate(353,263)"/>
<path d="M0 0 C0.57524414 0.16298584 1.15048828 0.32597168 1.74316406 0.49389648 C3.95708107 0.99037528 5.84673797 1.11479744 8.109375 1.09765625 C9.24052734 1.09282227 9.24052734 1.09282227 10.39453125 1.08789062 C11.17183594 1.07951172 11.94914063 1.07113281 12.75 1.0625 C13.93916016 1.05573242 13.93916016 1.05573242 15.15234375 1.04882812 C17.10159508 1.03708565 19.05080738 1.01915146 21 1 C21 0.67 21 0.34 21 0 C22.65 0 24.3 0 26 0 C26 0.99 26 1.98 26 3 C17.42 3 8.84 3 0 3 C0 2.01 0 1.02 0 0 Z " fill="#2A343F" transform="translate(146,403)"/>
<path d="M0 0 C0.99 0.33 1.98 0.66 3 1 C2.71125 1.556875 2.4225 2.11375 2.125 2.6875 C0.9586747 5.08494645 -0.0339881 7.51596939 -1 10 C-2.32 9.34 -3.64 8.68 -5 8 C-3.8141763 4.62496331 -2.72426311 2.35277269 0 0 Z " fill="#162333" transform="translate(301,281)"/>
<path d="M0 0 C0.375 2.1875 0.375 2.1875 0 5 C-1.83961648 6.99022836 -3.79186148 8.38989899 -6 10 C-6.99 9.01 -7.98 8.02 -9 7 C-7.69013727 5.83037314 -6.3770374 4.66437056 -5.0625 3.5 C-3.96615234 2.52546875 -3.96615234 2.52546875 -2.84765625 1.53125 C-1 0 -1 0 0 0 Z " fill="#2D3640" transform="translate(310,273)"/>
<path d="M0 0 C3.7952131 1.49097658 5.61042731 3.75700849 8 7 C6.02 7.99 6.02 7.99 4 9 C-0.00390625 4.60546875 -0.00390625 4.60546875 -1 3 C-0.67 2.01 -0.34 1.02 0 0 Z " fill="#253544" transform="translate(233,273)"/>
<path d="M0 0 C2.75903437 1.37951718 2.83859851 2.82240663 3.875 5.6875 C5.49357494 9.92865313 7.31398775 13.35469766 10 17 C9.01 17 8.02 17 7 17 C2.86243804 11.88465599 0.28555933 6.56786448 0 0 Z " fill="#EBE6DC" transform="translate(226,220)"/>
<path d="M0 0 C1.32 0 2.64 0 4 0 C3.71758359 1.46015291 3.42373386 2.91809793 3.125 4.375 C2.96257812 5.18710938 2.80015625 5.99921875 2.6328125 6.8359375 C2 9 2 9 0 11 C-0.99 10.01 -1.98 9.02 -3 8 C-2.01 5.36 -1.02 2.72 0 0 Z " fill="#242C35" transform="translate(349,219)"/>
<path d="M0 0 C4.29 0 8.58 0 13 0 C13.33 1.32 13.66 2.64 14 4 C10.04 4 6.08 4 2 4 C2 3.67 2 3.34 2 3 C3.65 2.67 5.3 2.34 7 2 C4.69 1.67 2.38 1.34 0 1 C0 0.67 0 0.34 0 0 Z " fill="#3A424D" transform="translate(210,214)"/>
<path d="M0 0 C1.12588014 0.95729916 2.2506715 1.91587895 3.375 2.875 C4.00148438 3.40867188 4.62796875 3.94234375 5.2734375 4.4921875 C6.55836651 5.61432007 7.79371975 6.79371975 9 8 C7.68 8.99 6.36 9.98 5 11 C1.7089159 7.39042389 0.45336079 4.87362847 0 0 Z " fill="#1D2434" transform="translate(282,187)"/>
<path d="M0 0 C2.85091869 1.27799804 5.22144171 2.37896673 7 5 C6.6875 8.1875 6.6875 8.1875 6 11 C0 5 0 5 -0.0625 2.4375 C-0.041875 1.633125 -0.02125 0.82875 0 0 Z " fill="#293240" transform="translate(311,172)"/>
<path d="M0 0 C2.37948772 0.17625835 3.70225849 0.69719773 5.37890625 2.40234375 C6.62115486 3.90649092 7.81376056 5.45129851 9 7 C8.01 7.66 7.02 8.32 6 9 C3.69 6.69 1.38 4.38 -1 2 C-0.67 1.34 -0.34 0.68 0 0 Z " fill="#131F30" transform="translate(270,274)"/>
<path d="M0 0 C-0.33 1.98 -0.66 3.96 -1 6 C-1.928125 6.268125 -2.85625 6.53625 -3.8125 6.8125 C-6.76240366 7.91148371 -8.05615186 8.62418561 -10 11 C-10.66 10.67 -11.32 10.34 -12 10 C-10.38113585 8.32737283 -8.7547271 6.66204463 -7.125 5 C-6.22007812 4.071875 -5.31515625 3.14375 -4.3828125 2.1875 C-2 0 -2 0 0 0 Z " fill="#313947" transform="translate(291,150)"/>
<path d="M0 0 C3.3 0 6.6 0 10 0 C10 0.99 10 1.98 10 3 C6.57767028 4.14077657 3.91326783 4.09815117 0.3125 4.0625 C-1.45673828 4.04896484 -1.45673828 4.04896484 -3.26171875 4.03515625 C-4.16535156 4.02355469 -5.06898438 4.01195312 -6 4 C-6 3.67 -6 3.34 -6 3 C-2.7 2.67 0.6 2.34 4 2 C2.68 1.34 1.36 0.68 0 0 Z " fill="#2E394A" transform="translate(461,386)"/>
<path d="M0 0 C2.29371595 0.03813083 4.58633147 0.15570982 6.875 0.3125 C8.75832031 0.43044922 8.75832031 0.43044922 10.6796875 0.55078125 C14 1 14 1 17 3 C14.5622037 3.05397335 12.12560315 3.09365616 9.6875 3.125 C8.65206055 3.15013672 8.65206055 3.15013672 7.59570312 3.17578125 C3.82864604 3.21217794 2.21568296 3.14378864 -1 1 C-0.67 0.67 -0.34 0.34 0 0 Z " fill="#081529" transform="translate(258,289)"/>
<path d="M0 0 C-0.73605469 0.51949219 -1.47210938 1.03898437 -2.23046875 1.57421875 C-9.54312191 6.79793984 -9.54312191 6.79793984 -16 13 C-16.66 12.67 -17.32 12.34 -18 12 C-16.44395612 10.38957012 -14.87987244 8.78690632 -13.3125 7.1875 C-12.44238281 6.29417969 -11.57226562 5.40085937 -10.67578125 4.48046875 C-4.2972973 -1.43243243 -4.2972973 -1.43243243 0 0 Z " fill="#FAF3E4" transform="translate(320,273)"/>
<path d="M0 0 C1.07765625 0.01804687 2.1553125 0.03609375 3.265625 0.0546875 C4.49539063 0.08949219 4.49539063 0.08949219 5.75 0.125 C3.77 3.095 3.77 3.095 1.75 6.125 C1.42 4.805 1.09 3.485 0.75 2.125 C-2.88 2.125 -6.51 2.125 -10.25 2.125 C-6.14441282 0.07220641 -4.44793315 -0.0966942 0 0 Z " fill="#A17F50" transform="translate(342.25,266.875)"/>
<path d="M0 0 C0.33 0.99 0.66 1.98 1 3 C-4.28 3 -9.56 3 -15 3 C-15 2.34 -15 1.68 -15 1 C-13.43784452 0.83013455 -11.8752548 0.66426036 -10.3125 0.5 C-9.44238281 0.4071875 -8.57226562 0.314375 -7.67578125 0.21875 C-5.10276661 0.00840136 -2.58015636 -0.03719144 0 0 Z " fill="#0D1626" transform="translate(265,259)"/>
<path d="M0 0 C3.99500618 1.3697164 6.80009492 3.25722422 10 6 C6.04 6 2.08 6 -2 6 C-1.01 5.67 -0.02 5.34 1 5 C0.67 3.35 0.34 1.7 0 0 Z " fill="#9F794E" transform="translate(248,251)"/>
<path d="M0 0 C2.31309705 0.11341637 4.62550185 0.24103807 6.9375 0.375 C8.86916016 0.47941406 8.86916016 0.47941406 10.83984375 0.5859375 C12.40412109 0.79089844 12.40412109 0.79089844 14 1 C14.33 1.66 14.66 2.32 15 3 C9.72 3 4.44 3 -1 3 C-0.67 2.01 -0.34 1.02 0 0 Z " fill="#091525" transform="translate(316,259)"/>
<path d="M0 0 C2.83281228 3.20230954 3.63854952 5.75295682 4 10 C3.67 10.99 3.34 11.98 3 13 C0.49969505 10.06485941 -0.61469778 7.85302223 -1 4 C-0.5625 1.6875 -0.5625 1.6875 0 0 Z " fill="#1F2A3A" transform="translate(250,230)"/>
<path d="M0 0 C0.66 0.33 1.32 0.66 2 1 C2 1.99 2 2.98 2 4 C-4.52307692 3.38461538 -4.52307692 3.38461538 -6.9375 1.4375 C-7.288125 0.963125 -7.63875 0.48875 -8 0 C-5.11541362 -1.44229319 -3.09360585 -0.64450122 0 0 Z " fill="#1A2835" transform="translate(322,302)"/>
<path d="M0 0 C-0.75 5.75 -0.75 5.75 -3 8 C-3.33 7.67 -3.66 7.34 -4 7 C-4.33 7.66 -4.66 8.32 -5 9 C-5.66 8.67 -6.32 8.34 -7 8 C-3.8 0 -3.8 0 0 0 Z " fill="#27303F" transform="translate(212,405)"/>
<path d="M0 0 C0.33 0.66 0.66 1.32 1 2 C2.89611434 1.85786703 4.79188394 1.71113093 6.6875 1.5625 C7.74324219 1.48128906 8.79898437 1.40007812 9.88671875 1.31640625 C12.65086297 1.03548319 15.28945741 0.59843148 18 0 C17.67 0.99 17.34 1.98 17 3 C16.01 3 15.02 3 14 3 C13.67 3.99 13.34 4.98 13 6 C13 5.01 13 4.02 13 3 C8.71 3 4.42 3 0 3 C0 2.01 0 1.02 0 0 Z " fill="#4C515B" transform="translate(356,215)"/>
<path d="M0 0 C0.99 0.33 1.98 0.66 3 1 C3.375 8.5 3.375 8.5 0 13 C0 8.71 0 4.42 0 0 Z " fill="#0B1426" transform="translate(331,211)"/>
<path d="M0 0 C1.65 0 3.3 0 5 0 C4.34 1.98 3.68 3.96 3 6 C1.35 6.33 -0.3 6.66 -2 7 C-1.34 4.69 -0.68 2.38 0 0 Z " fill="#25303D" transform="translate(217,383)"/>
<path d="M0 0 C3.125 0.375 3.125 0.375 6 1 C6 1.66 6 2.32 6 3 C10.29 3 14.58 3 19 3 C19 3.33 19 3.66 19 4 C4.21867882 4.3690205 4.21867882 4.3690205 -2 2 C-1.34 1.34 -0.68 0.68 0 0 Z " fill="#B0BEC6" transform="translate(230,301)"/>
<path d="M0 0 C-0.99 0.495 -0.99 0.495 -2 1 C-2 1.66 -2 2.32 -2 3 C-6.29 3 -10.58 3 -15 3 C-11.36041667 -0.63958333 -4.96749719 -0.15523429 0 0 Z " fill="#091627" transform="translate(321,289)"/>
<path d="M0 0 C3.74618856 1.24872952 4.72179388 2.84703013 7.125 5.9375 C7.82882813 6.83339844 8.53265625 7.72929687 9.2578125 8.65234375 C11 11 11 11 12 13 C8.64065168 11.56875447 6.68207173 9.82271696 4.3125 7.0625 C3.71050781 6.37285156 3.10851562 5.68320313 2.48828125 4.97265625 C1 3 1 3 0 0 Z " fill="#E0F3F6" transform="translate(235,228)"/>
<path d="M0 0 C0.33 0 0.66 0 1 0 C0.88610125 1.79240663 0.75852313 3.58394835 0.625 5.375 C0.52058594 6.87160156 0.52058594 6.87160156 0.4140625 8.3984375 C0 11 0 11 -2 13 C-3.37734745 9.17403486 -2.7995385 5.92500718 -2 2 C-1.34 1.34 -0.68 0.68 0 0 Z " fill="#0D1A2B" transform="translate(249,209)"/>
<path d="M0 0 C2 2 2 2 2.1953125 4.3828125 C2.17210937 5.28773438 2.14890625 6.19265625 2.125 7.125 C2.10695313 8.03507812 2.08890625 8.94515625 2.0703125 9.8828125 C2.04710937 10.58148438 2.02390625 11.28015625 2 12 C-0.97 11.505 -0.97 11.505 -4 11 C-2.68 10.67 -1.36 10.34 0 10 C0 6.7 0 3.4 0 0 Z " fill="#2B3342" transform="translate(534,366)"/>
<path d="M0 0 C0 0.99 0 1.98 0 3 C-2.3125 5.25 -2.3125 5.25 -5 7 C-5.99 6.67 -6.98 6.34 -8 6 C-6.8125 3.5625 -6.8125 3.5625 -5 1 C-2.3125 0.1875 -2.3125 0.1875 0 0 Z " fill="#202A38" transform="translate(378,290)"/>
<path d="M0 0 C-1.1858237 3.37503669 -2.27573689 5.64722731 -5 8 C-5 7.34 -5 6.68 -5 6 C-5.66 6 -6.32 6 -7 6 C-6.1875 3.5625 -6.1875 3.5625 -5 1 C-2 0 -2 0 0 0 Z " fill="#27323F" transform="translate(366,238)"/>
<path d="M0 0 C0.33 0 0.66 0 1 0 C1.19569589 2.56211075 1.38180612 5.12432391 1.5625 7.6875 C1.61857422 8.40873047 1.67464844 9.12996094 1.73242188 9.87304688 C1.99955159 13.77314064 2.00887596 17.21111028 1 21 C-1.1165563 17.82516555 -1.22929149 17.33300995 -0.9765625 13.76953125 C-0.925 12.96708984 -0.8734375 12.16464844 -0.8203125 11.33789062 C-0.75585938 10.50451172 -0.69140625 9.67113281 -0.625 8.8125 C-0.56828125 7.96751953 -0.5115625 7.12253906 -0.453125 6.25195312 C-0.31179176 4.16728783 -0.1571675 2.08353134 0 0 Z " fill="#B1BFC8" transform="translate(334,214)"/>
<path d="M0 0 C0.66 0 1.32 0 2 0 C3.4606285 2.64738916 4 3.89448334 4 7 C3.34 7 2.68 7 2 7 C1.34 8.32 0.68 9.64 0 11 C-0.19406478 9.35492782 -0.38007935 7.70890406 -0.5625 6.0625 C-0.66691406 5.14597656 -0.77132813 4.22945312 -0.87890625 3.28515625 C-0.91886719 2.53105469 -0.95882813 1.77695313 -1 1 C-0.67 0.67 -0.34 0.34 0 0 Z " fill="#2F3642" transform="translate(316,208)"/>
<path d="M0 0 C-0.75 1.9375 -0.75 1.9375 -2 4 C-4.125 4.75 -4.125 4.75 -6 5 C-6 4.01 -6 3.02 -6 2 C-6.66 1.34 -7.32 0.68 -8 0 C-4.71303767 -0.79953138 -3.28976808 -1.09658936 0 0 Z " fill="#384150" transform="translate(554,401)"/>
<path d="M0 0 C4.95 0 9.9 0 15 0 C15 0.33 15 0.66 15 1 C14.39671875 1.03738281 13.7934375 1.07476562 13.171875 1.11328125 C7.00632228 1.56253341 7.00632228 1.56253341 2 5 C1.34 3.35 0.68 1.7 0 0 Z " fill="#D3D1CE" transform="translate(230,265)"/>
<path d="M0 0 C0.33 0 0.66 0 1 0 C1.33 2.97 1.66 5.94 2 9 C-0.83556587 10.41778293 -2.9908706 9.86257622 -6.125 9.5625 C-7.76855469 9.40974609 -7.76855469 9.40974609 -9.4453125 9.25390625 C-10.28835937 9.17011719 -11.13140625 9.08632812 -12 9 C-12 8.67 -12 8.34 -12 8 C-6.555 7.505 -6.555 7.505 -1 7 C-0.67 4.69 -0.34 2.38 0 0 Z " fill="#D9CFC5" transform="translate(225,211)"/>
<path d="M0 0 C1.98 0.99 1.98 0.99 4 2 C3.45276317 5.37462715 2.9451 7.08235 1 10 C-0.1577506 6.52674819 -0.06866652 3.63932552 0 0 Z " fill="#232C3C" transform="translate(226,211)"/>
<path d="M0 0 C0.33 0.99 0.66 1.98 1 3 C1.66 3.33 2.32 3.66 3 4 C0.6875 5.5625 0.6875 5.5625 -2 7 C-2.99 6.67 -3.98 6.34 -5 6 C-5 5.01 -5 4.02 -5 3 C-2.5 1.3125 -2.5 1.3125 0 0 Z " fill="#2C3645" transform="translate(277,397)"/>
<path d="M0 0 C0 0.33 0 0.66 0 1 C-1.95565258 1.38873828 -3.91466504 1.76060833 -5.875 2.125 C-6.96554688 2.33382813 -8.05609375 2.54265625 -9.1796875 2.7578125 C-10.57574219 2.87769531 -10.57574219 2.87769531 -12 3 C-12.66 2.34 -13.32 1.68 -14 1 C-8.80451575 -1.20808081 -5.41735797 -0.93402724 0 0 Z " fill="#BDD3DB" transform="translate(225,268)"/>
<path d="M0 0 C0.66 0 1.32 0 2 0 C2 2.64 2 5.28 2 8 C1.34 8 0.68 8 0 8 C-1.125 2.25 -1.125 2.25 0 0 Z M-2 6 C-1.67 6.66 -1.34 7.32 -1 8 C-1.66 8.66 -2.32 9.32 -3 10 C-2.67 8.68 -2.34 7.36 -2 6 Z " fill="#252D3B" transform="translate(287,204)"/>
<path d="M0 0 C-0.33 3.3 -0.66 6.6 -1 10 C-1.33 10 -1.66 10 -2 10 C-2.2475 8.88625 -2.495 7.7725 -2.75 6.625 C-3.61005339 2.95384802 -3.61005339 2.95384802 -6.125 1.5625 C-6.74375 1.376875 -7.3625 1.19125 -8 1 C-5.10765685 0.17361624 -3.11257569 0 0 0 Z " fill="#3A414E" transform="translate(353,180)"/>
<path d="M0 0 C2.33944736 0.28730055 4.6739143 0.61936779 7 1 C7 1.66 7 2.32 7 3 C3.04 3 -0.92 3 -5 3 C-3.68 2.34 -2.36 1.68 -1 1 C-0.67 0.67 -0.34 0.34 0 0 Z " fill="#0F1B29" transform="translate(457,426)"/>
<path d="M0 0 C-0.33 0.66 -0.66 1.32 -1 2 C-4.63 2 -8.26 2 -12 2 C-12.33 1.34 -12.66 0.68 -13 0 C-8.37078475 -1.0161692 -4.65537393 -0.83796731 0 0 Z " fill="#0B1929" transform="translate(466,387)"/>
<path d="M0 0 C0.99 0.33 1.98 0.66 3 1 C1.25 4.875 1.25 4.875 -1 6 C-1 5.34 -1 4.68 -1 4 C-2.65 4.66 -4.3 5.32 -6 6 C-4 4 -2 2 0 0 Z " fill="#27303D" transform="translate(57,369)"/>
<path d="M0 0 C2.375 0.25 2.375 0.25 5 1 C6.3125 3.0625 6.3125 3.0625 7 5 C6.01 5.33 5.02 5.66 4 6 C2.62437146 4.71034824 1.29233607 3.37310707 0 2 C0 1.34 0 0.68 0 0 Z " fill="#12212F" transform="translate(220,246)"/>
<path d="M0 0 C0.928125 0.20625 1.85625 0.4125 2.8125 0.625 C2.8125 0.955 2.8125 1.285 2.8125 1.625 C1.884375 1.893125 0.95625 2.16125 0 2.4375 C-2.94990366 3.53648371 -4.24365186 4.24918561 -6.1875 6.625 C-6.375 4.25 -6.375 4.25 -6.1875 1.625 C-3.1875 -0.375 -3.1875 -0.375 0 0 Z " fill="#242B38" transform="translate(193.1875,418.375)"/>
<path d="M0 0 C3.3 0 6.6 0 10 0 C10.33 0.66 10.66 1.32 11 2 C10.34 2 9.68 2 9 2 C9 2.66 9 3.32 9 4 C7.68 3.67 6.36 3.34 5 3 C5 2.34 5 1.68 5 1 C3.35 1 1.7 1 0 1 C0 0.67 0 0.34 0 0 Z " fill="#333948" transform="translate(522,355)"/>
<path d="M0 0 C0.66 0.33 1.32 0.66 2 1 C0.515 2.485 0.515 2.485 -1 4 C-0.01 4.66 0.98 5.32 2 6 C-0.97 6 -3.94 6 -7 6 C-4.74259377 3.66475218 -2.7194239 1.81294927 0 0 Z " fill="#A78857" transform="translate(331,251)"/>
<path d="M0 0 C0.99 0.33 1.98 0.66 3 1 C0.47211993 3.79872437 -1.20411134 5.45773019 -5 6 C-5.33 5.34 -5.66 4.68 -6 4 C-3 2 -3 2 0 2 C0 1.34 0 0.68 0 0 Z " fill="#101B2D" transform="translate(268,379)"/>
<path d="M0 0 C3.96 0 7.92 0 12 0 C12 0.66 12 1.32 12 2 C7.28400182 2.92470553 4.32734391 3.22923777 0 1 C0 0.67 0 0.34 0 0 Z " fill="#0E1829" transform="translate(194,357)"/>
<path d="M0 0 C0 0.66 0 1.32 0 2 C-2.64 2.66 -5.28 3.32 -8 4 C-8 3.01 -8 2.02 -8 1 C-5.07175348 0.02391783 -3.04386724 -0.08226668 0 0 Z " fill="#152031" transform="translate(223,264)"/>
<path d="M0 0 C1.65 0.33 3.3 0.66 5 1 C5 1.66 5 2.32 5 3 C0.05 3 -4.9 3 -10 3 C-10 2.67 -10 2.34 -10 2 C-6.7 2 -3.4 2 0 2 C0 1.34 0 0.68 0 0 Z " fill="#EDEFEF" transform="translate(259,256)"/>
<path d="M0 0 C4.05281712 1.22527029 7.44360764 2.69880494 11 5 C9.234375 5.6484375 9.234375 5.6484375 7 6 C5.078125 5.0390625 5.078125 5.0390625 3.25 3.625 C2.63640625 3.16351563 2.0228125 2.70203125 1.390625 2.2265625 C0.93171875 1.82179687 0.4728125 1.41703125 0 1 C0 0.67 0 0.34 0 0 Z " fill="#E9E6DC" transform="translate(229,250)"/>
<path d="M0 0 C0.66 0.33 1.32 0.66 2 1 C0.90220176 2.15193623 -0.20349446 3.29634937 -1.3125 4.4375 C-1.92738281 5.07558594 -2.54226563 5.71367187 -3.17578125 6.37109375 C-5 8 -5 8 -8 9 C-6.4169423 4.7257442 -3.49431596 2.73468206 0 0 Z " fill="#F4EDDE" transform="translate(342,240)"/>
<path d="M0 0 C3.96 0 7.92 0 12 0 C12 0.66 12 1.32 12 2 C7.31034294 3.11658501 4.46236469 2.80619523 0 1 C0 0.67 0 0.34 0 0 Z " fill="#0B1526" transform="translate(318,357)"/>
<path d="M0 0 C1.65 0.33 3.3 0.66 5 1 C3.02579865 3.52259061 2.03254358 3.9929808 -1.1875 4.6875 C-2.5796875 4.8421875 -2.5796875 4.8421875 -4 5 C-3.67 4.34 -3.34 3.68 -3 3 C-2.34 3 -1.68 3 -1 3 C-0.67 2.01 -0.34 1.02 0 0 Z " fill="#1A2332" transform="translate(362,298)"/>
<path d="M0 0 C3.19199167 2.41556126 5.74716687 4.68003538 8 8 C7.67 8.66 7.34 9.32 7 10 C5.82438854 8.90536178 4.6597511 7.79892814 3.5 6.6875 C2.52546875 5.76517578 2.52546875 5.76517578 1.53125 4.82421875 C0 3 0 3 0 0 Z " fill="#F4EFE0" transform="translate(233,269)"/>
<path d="M0 0 C0.33 0 0.66 0 1 0 C1 2.64 1 5.28 1 8 C0.01 7.67 -0.98 7.34 -2 7 C-2.99 7 -3.98 7 -5 7 C-4.19152271 5.83054208 -3.37810888 4.66449539 -2.5625 3.5 C-2.11003906 2.8503125 -1.65757812 2.200625 -1.19140625 1.53125 C-0.79824219 1.0259375 -0.40507812 0.520625 0 0 Z " fill="#252F3D" transform="translate(324,241)"/>
<path d="M0 0 C2.46254526 2.1413437 3.69050349 3.69870394 4 7 C3.01 8.485 3.01 8.485 2 10 C1.01 7.03 0.02 4.06 -1 1 C-0.67 0.67 -0.34 0.34 0 0 Z " fill="#142332" transform="translate(214,233)"/>
<path d="M0 0 C1.28485596 5.13942384 0.22194431 6.37835584 -2 11 C-2.66 10.01 -3.32 9.02 -4 8 C-2.68 5.36 -1.36 2.72 0 0 Z " fill="#DBEAEF" transform="translate(333,232)"/>
<path d="M0 0 C0.66 0.33 1.32 0.66 2 1 C1.34 2.98 0.68 4.96 0 7 C-0.268125 6.360625 -0.53625 5.72125 -0.8125 5.0625 C-1.88667752 2.66868314 -1.88667752 2.66868314 -5 2 C-2.625 0.9375 -2.625 0.9375 0 0 Z " fill="#2E3845" transform="translate(518,380)"/>
<path d="M0 0 C0 1.32 0 2.64 0 4 C-1.65 4.33 -3.3 4.66 -5 5 C-5.33 3.68 -5.66 2.36 -6 1 C-3 0 -3 0 0 0 Z " fill="#263141" transform="translate(275,377)"/>
<path d="M0 0 C1.65 0.33 3.3 0.66 5 1 C5 1.66 5 2.32 5 3 C2.69 3.33 0.38 3.66 -2 4 C-1.34 2.68 -0.68 1.36 0 0 Z " fill="#152133" transform="translate(261,301)"/>
<path d="M0 0 C1.65 0.99 3.3 1.98 5 3 C4.01 3.99 3.02 4.98 2 6 C0.68 5.01 -0.64 4.02 -2 3 C-1.34 2.01 -0.68 1.02 0 0 Z " fill="#233142" transform="translate(204,289)"/>
<path d="M0 0 C-0.57344937 2.86724686 -0.8614515 3.8614515 -3 6 C-3.99 5.34 -4.98 4.68 -6 4 C-2.25 0 -2.25 0 0 0 Z " fill="#172031" transform="translate(258,189)"/>
<path d="M0 0 C0.625 1.875 0.625 1.875 1 4 C0.34 4.66 -0.32 5.32 -1 6 C-1.99 6 -2.98 6 -4 6 C-4 4.68 -4 3.36 -4 2 C-2.68 1.34 -1.36 0.68 0 0 Z " fill="#262D3C" transform="translate(333,186)"/>
<path d="M0 0 C1.32 0 2.64 0 4 0 C4 1.32 4 2.64 4 4 C2.35 4 0.7 4 -1 4 C-0.67 2.68 -0.34 1.36 0 0 Z " fill="#323A45" transform="translate(95,359)"/>
<path d="M0 0 C4.29 0 8.58 0 13 0 C13 0.33 13 0.66 13 1 C11.20994059 1.36220266 9.41787943 1.71452469 7.625 2.0625 C6.12839844 2.35833984 6.12839844 2.35833984 4.6015625 2.66015625 C2 3 2 3 0 2 C0 1.34 0 0.68 0 0 Z " fill="#1B2635" transform="translate(303,289)"/>
<path d="M0 0 C1.98 1.65 3.96 3.3 6 5 C5.01 5.33 4.02 5.66 3 6 C2.67 6.66 2.34 7.32 2 8 C0.23537317 4.91190305 0 3.76687864 0 0 Z " fill="#282E3E" transform="translate(282,187)"/>
<path d="M0 0 C0.66 0.33 1.32 0.66 2 1 C1.360625 1.721875 0.72125 2.44375 0.0625 3.1875 C-1.98673535 5.98191184 -2.61332946 7.61663274 -3 11 C-3.33 11 -3.66 11 -4 11 C-4.36630156 7.06225823 -4.30233203 5.43460229 -2 2.125 C-1.34 1.42375 -0.68 0.7225 0 0 Z " fill="#2F3641" transform="translate(511,359)"/>
<path d="M0 0 C0.99 0.33 1.98 0.66 3 1 C-0.465 3.97 -0.465 3.97 -4 7 C-3.04065919 3.16263678 -2.76390737 2.40339772 0 0 Z " fill="#19202E" transform="translate(383,360)"/>
<path d="M0 0 C0.33 0.66 0.66 1.32 1 2 C1.66 2.33 2.32 2.66 3 3 C1.625 4.5 1.625 4.5 0 6 C-0.66 6 -1.32 6 -2 6 C-2.33 4.68 -2.66 3.36 -3 2 C-2.01 1.34 -1.02 0.68 0 0 Z " fill="#283442" transform="translate(273,294)"/>
<path d="M0 0 C2.64 0 5.28 0 8 0 C5.06171403 2.50298434 2.82097239 3.46930939 -1 4 C-0.34 3.34 0.32 2.68 1 2 C0.67 1.34 0.34 0.68 0 0 Z " fill="#6598AD" transform="translate(260,295)"/>
<path d="M0 0 C3.96 1.98 3.96 1.98 8 4 C8 4.99 8 5.98 8 7 C6.66144944 6.21718695 5.32926356 5.42348123 4 4.625 C3.2575 4.18414062 2.515 3.74328125 1.75 3.2890625 C1.1725 2.86367188 0.595 2.43828125 0 2 C0 1.34 0 0.68 0 0 Z " fill="#D5E4EA" transform="translate(379,274)"/>
<path d="M0 0 C1.98 0.495 1.98 0.495 4 1 C4 2.32 4 3.64 4 5 C1.525 4.01 1.525 4.01 -1 3 C-0.67 2.01 -0.34 1.02 0 0 Z " fill="#1C2637" transform="translate(247,187)"/>
<path d="M0 0 C1.32 0.33 2.64 0.66 4 1 C2.71034824 2.37562854 1.37310707 3.70766393 0 5 C-0.66 5 -1.32 5 -2 5 C-1.34 3.35 -0.68 1.7 0 0 Z " fill="#111C2C" transform="translate(335,185)"/>
<path d="M0 0 C0 2.33333333 0 4.66666667 0 7 C-2.475 6.01 -2.475 6.01 -5 5 C-3.35 3.35 -1.7 1.7 0 0 Z " fill="#2F3A49" transform="translate(480,420)"/>
<path d="M0 0 C0.33 0.99 0.66 1.98 1 3 C0.34 3 -0.32 3 -1 3 C-1 3.66 -1 4.32 -1 5 C-0.34 5.33 0.32 5.66 1 6 C-0.65 5.67 -2.3 5.34 -4 5 C-4 4.01 -4 3.02 -4 2 C-2.68 1.34 -1.36 0.68 0 0 Z " fill="#38424E" transform="translate(407,401)"/>
<path d="M0 0 C0 1.32 0 2.64 0 4 C-0.99 4.33 -1.98 4.66 -3 5 C-3.33 4.34 -3.66 3.68 -4 3 C-4.99 2.34 -5.98 1.68 -7 1 C-2.25 0 -2.25 0 0 0 Z " fill="#2E3846" transform="translate(298,400)"/>
<path d="M0 0 C0.598125 0.20625 1.19625 0.4125 1.8125 0.625 C1.8125 1.285 1.8125 1.945 1.8125 2.625 C0.1625 3.285 -1.4875 3.945 -3.1875 4.625 C-3.1875 3.965 -3.1875 3.305 -3.1875 2.625 C-3.8475 2.295 -4.5075 1.965 -5.1875 1.625 C-2.1875 -0.375 -2.1875 -0.375 0 0 Z " fill="#283342" transform="translate(339.1875,281.375)"/>
<path d="M0 0 C-2.64 1.65 -5.28 3.3 -8 5 C-8 4.01 -8 3.02 -8 2 C-3.71900826 -1.23966942 -3.71900826 -1.23966942 0 0 Z " fill="#EAE3D3" transform="translate(320,273)"/>
<path d="M0 0 C0.33 0.99 0.66 1.98 1 3 C-0.4375 5.6875 -0.4375 5.6875 -2 8 C-2.99 7.67 -3.98 7.34 -5 7 C-3.35 4.69 -1.7 2.38 0 0 Z " fill="#D9E8ED" transform="translate(354,267)"/>
<path d="M0 0 C2.31 0 4.62 0 7 0 C7.33 0.66 7.66 1.32 8 2 C5.36 2.33 2.72 2.66 0 3 C0 2.01 0 1.02 0 0 Z " fill="#070F1D" transform="translate(210,215)"/>
</svg>
